<svg width="67" height="67" viewBox="0 0 67 67" fill="none" xmlns="http://www.w3.org/2000/svg">
<path d="M38.3174 56.8103V55.2749H39.0852C42.0629 55.2749 44.5754 54.67 46.6227 53.4603C48.6699 52.2506 49.6935 50.7151 49.6935 48.854C49.6935 47.4117 48.9258 46.074 47.3904 44.841C45.8549 43.608 43.7147 42.6891 40.9695 42.0842L42.2956 40.7582C45.3199 41.5026 47.5648 42.6077 49.0305 44.0733C50.4961 45.5389 51.2289 47.1325 51.2289 48.854C51.2289 51.4131 49.961 53.3789 47.4253 54.7514C44.8895 56.124 42.1095 56.8103 39.0852 56.8103H38.3174ZM18.0081 37.1988C15.2629 36.4544 13.2739 35.4889 12.0409 34.3025C10.8079 33.116 10.1914 31.9179 10.1914 30.7082C10.1914 29.3589 10.7846 28.1375 11.9711 27.0441C13.1576 25.9507 15.5421 24.6596 19.1247 23.1707C22.2886 21.8679 24.4173 20.7745 25.5107 19.8905C26.6041 19.0065 27.1508 17.9596 27.1508 16.7499C27.1508 15.354 26.4761 14.1676 25.1268 13.1905C23.7775 12.2134 21.9164 11.7249 19.5435 11.7249C17.7754 11.7249 16.3331 11.9342 15.2164 12.353C14.0997 12.7717 13.3553 13.3068 12.9831 13.9582H10.8893C11.4477 12.8415 12.4596 11.9342 13.9253 11.2363C15.3909 10.5384 17.2636 10.1895 19.5435 10.1895C22.2421 10.1895 24.4405 10.8176 26.1388 12.0738C27.8371 13.3301 28.6862 14.8888 28.6862 16.7499C28.6862 18.2388 28.0581 19.5648 26.8018 20.728C25.5456 21.8912 23.1959 23.1707 19.7529 24.5665C16.682 25.8228 14.5766 26.9046 13.4367 27.8118C12.2968 28.7191 11.7268 29.6846 11.7268 30.7082C11.7268 31.6853 12.3433 32.6158 13.5763 33.4999C14.8093 34.3839 16.7286 35.1981 19.3341 35.9426L18.0081 37.1988ZM49.9727 23.8686L45.0174 18.9134L49.0654 14.9353L53.9508 19.8207L49.9727 23.8686ZM15.7049 53.1811H18.4268L43.0633 28.5447L40.3414 25.8228L15.7049 50.4592V53.1811ZM14.1695 54.7165V49.8311L40.3414 23.5895L45.2966 28.5447L19.0549 54.7165H14.1695Z" fill="#EEEEEE"/>
</svg>
