<svg width="67" height="67" viewBox="0 0 67 67" fill="none" xmlns="http://www.w3.org/2000/svg">
<path d="M40.1299 31.406C39.5251 31.406 39.0016 31.1966 38.5596 30.7779C38.1176 30.3591 37.8966 29.824 37.8966 29.1727C37.8966 28.5213 38.1176 27.9746 38.5596 27.5326C39.0016 27.0905 39.5251 26.8695 40.1299 26.8695C40.7813 26.8695 41.328 27.0905 41.77 27.5326C42.2121 27.9746 42.4331 28.5213 42.4331 29.1727C42.4331 29.824 42.2121 30.3591 41.77 30.7779C41.328 31.1966 40.7813 31.406 40.1299 31.406ZM26.8695 31.406C26.2181 31.406 25.6714 31.1966 25.2294 30.7779C24.7874 30.3591 24.5664 29.824 24.5664 29.1727C24.5664 28.5213 24.7874 27.9746 25.2294 27.5326C25.6714 27.0905 26.2181 26.8695 26.8695 26.8695C27.4744 26.8695 27.9978 27.0905 28.4398 27.5326C28.8819 27.9746 29.1029 28.5213 29.1029 29.1727C29.1029 29.824 28.8819 30.3591 28.4398 30.7779C27.9978 31.1966 27.4744 31.406 26.8695 31.406ZM33.4997 44.5268C31.499 44.5268 29.6147 44.0499 27.8466 43.0961C26.0786 42.1423 24.6129 40.8279 23.4497 39.1529H43.5497C42.3865 40.8279 40.9209 42.1423 39.1529 43.0961C37.3848 44.0499 35.5004 44.5268 33.4997 44.5268ZM33.4997 54.9956C30.522 54.9956 27.7303 54.4256 25.1247 53.2857C22.5192 52.1457 20.251 50.6103 18.3201 48.6794C16.3891 46.7485 14.8537 44.4803 13.7138 41.8747C12.5739 39.2692 12.0039 36.4775 12.0039 33.4997C12.0039 30.522 12.5739 27.7303 13.7138 25.1247C14.8537 22.5192 16.3891 20.251 18.3201 18.3201C20.251 16.3891 22.5192 14.8537 25.1247 13.7138C27.7303 12.5739 30.522 12.0039 33.4997 12.0039C36.4775 12.0039 39.2692 12.5739 41.8747 13.7138C44.4803 14.8537 46.7485 16.3891 48.6794 18.3201C50.6103 20.251 52.1457 22.5192 53.2857 25.1247C54.4256 27.7303 54.9956 30.522 54.9956 33.4997C54.9956 36.4775 54.4256 39.2692 53.2857 41.8747C52.1457 44.4803 50.6103 46.7485 48.6794 48.6794C46.7485 50.6103 44.4803 52.1457 41.8747 53.2857C39.2692 54.4256 36.4775 54.9956 33.4997 54.9956ZM33.4997 53.4602C38.99 53.4602 43.6893 51.5176 47.5977 47.6325C51.506 43.7475 53.4602 39.0598 53.4602 33.5695C53.4602 28.0327 51.5176 23.2869 47.6325 19.332C43.7475 15.3772 39.0133 13.3997 33.4299 13.3997C32.8251 13.3997 32.2202 13.4346 31.6154 13.5044C31.0105 13.5742 30.4289 13.6324 29.8706 13.6789C29.824 14.0511 29.8008 14.4001 29.8008 14.7258V15.7029C29.8008 17.0056 30.2661 18.1339 31.1966 19.0878C32.1272 20.0416 33.2671 20.5185 34.6164 20.5185C35.2213 20.5185 35.6633 20.4487 35.9424 20.3091C36.2216 20.1695 36.5473 20.0997 36.9195 20.0997C37.0591 20.0997 37.2103 20.1695 37.3732 20.3091C37.536 20.4487 37.6174 20.6348 37.6174 20.8674C37.6174 21.2862 37.3499 21.6235 36.8148 21.8794C36.2798 22.1353 35.547 22.2633 34.6164 22.2633C32.7553 22.2633 31.1966 21.6352 29.9404 20.3789C28.6841 19.1227 28.056 17.564 28.056 15.7029C28.056 15.4702 28.0676 15.226 28.0909 14.9701C28.1141 14.7141 28.1723 14.4466 28.2654 14.1674C24.0779 15.3306 20.5766 17.657 17.7617 21.1466C14.9468 24.6362 13.5393 28.7306 13.5393 33.4299C13.5393 38.9668 15.4935 43.6893 19.4018 47.5977C23.3102 51.506 28.0095 53.4602 33.4997 53.4602Z" fill="#EEEEEE"/>
</svg>
