<svg xmlns="http://www.w3.org/2000/svg" width="158" height="61" fill="none"><path fill="#DADADA" d="M8.987 33.403H5.956l-.709 4.035h-1.26l.71-4.035h-2.52v-1.181h2.716l.551-3.307h-2.5v-1.18h2.717L6.35 23.7h1.26l-.69 4.034h3.031l.69-4.034H11.9l-.69 4.034h2.52v1.181h-2.736l-.55 3.307h2.518v1.18h-2.716l-.708 4.035h-1.26l.709-4.034Zm.197-1.181.55-3.307h-3.03l-.551 3.307h3.03Zm7.673 5.215V23.7h8.385v1.456H18.51v4.606h6.337v1.456H18.51v4.763h6.73v1.456h-8.384Zm11.475 0V23.7h8.384v1.456h-6.73v4.606h6.337v1.456h-6.338v4.763h6.731v1.456h-8.384Zm11.474 0V23.7h8.385v1.456H41.46v4.606h6.337v1.456H41.46v4.763h6.73v1.456h-8.383Zm11.475 0V23.7h8.384v1.456h-6.73v4.606h6.337v1.456h-6.338v4.763h6.731v1.456h-8.384Zm11.475 0V23.7h8.384v1.456h-6.731v4.606h6.337v1.456H64.41v4.763h6.731v1.456h-8.384Zm11.474 0V23.7h8.385v1.456h-6.732v4.606h6.338v1.456h-6.338v4.763h6.732v1.456H74.23Z"/><path fill="#EEE" d="M97 60.559V-.001h60.56v60.56z"/></svg>