<svg width="57" height="32" viewBox="0 0 57 32" fill="none" xmlns="http://www.w3.org/2000/svg">
<path d="M10.8321 16.9087L6.38087 16.9682L3.56449 31.1679H0L6.16084 0H9.72533L7.04096 13.7532L11.5798 13.7225L10.8321 16.9087Z" fill="#CBFB45"/>
<path d="M10.8321 16.9087L6.38087 16.9682L3.56449 31.1679H0L6.16084 0H9.72533L7.04096 13.7532L11.5798 13.7225L10.8321 16.9087Z" fill="black" fill-opacity="0.4"/>
<path d="M19.7739 17.9952L17.1776 31.1679H11.6328L17.7937 0H23.3384L20.7861 12.9941H25.4479L24.4788 17.8921L19.7739 17.9952Z" fill="#CBFB45"/>
<path d="M19.7739 17.9952L17.1776 31.1679H11.6328L17.7937 0H23.3384L20.7861 12.9941H25.4479L24.4788 17.8921L19.7739 17.9952Z" fill="black" fill-opacity="0.4"/>
<path d="M46.4099 18.2631H34.9684L32.416 31.1679H26.0352L32.196 0H38.5769L36.1125 12.5475H47.5541L50.0184 0H56.3993L50.2385 31.1679H43.8576L46.4099 18.2631Z" fill="#CBFB45"/>
</svg>
