<svg width="121" height="120" viewBox="0 0 121 120" fill="none" xmlns="http://www.w3.org/2000/svg">
<rect width="120" height="120" transform="translate(0.5)" fill="black"/>
<path d="M36.0044 61.4413L23.6708 61.5329L19.2696 83.4017H13.6992L23.327 35.4004H28.8973L24.7024 56.5815L37.1727 56.5342L36.0044 61.4413Z" fill="#CBFB45"/>
<path d="M36.0044 61.4413L23.6708 61.5329L19.2696 83.4017H13.6992L23.327 35.4004H28.8973L24.7024 56.5815L37.1727 56.5342L36.0044 61.4413Z" fill="black" fill-opacity="0.4"/>
<path d="M48.7517 63.1146L44.6943 83.4017H36.0293L45.6571 35.4004H54.3221L50.3334 55.4124H64.0224L62.508 62.9557L48.7517 63.1146Z" fill="#CBFB45"/>
<path d="M48.7517 63.1146L44.6943 83.4017H36.0293L45.6571 35.4004H54.3221L50.3334 55.4124H64.0224L62.508 62.9557L48.7517 63.1146Z" fill="black" fill-opacity="0.4"/>
<path d="M94.7115 63.5272H76.8314L72.8427 83.4017H62.8711L72.4989 35.4004H82.4705L78.6194 54.7247H96.4995L100.351 35.4004H110.322L105.508 59.401L100.694 83.4017H90.7229L94.7115 63.5272Z" fill="#CBFB45"/>
</svg>
