<svg xmlns="http://www.w3.org/2000/svg" width="161" height="61" fill="none"><path fill="#DADADA" d="M8.987 33.844H5.956l-.709 4.035h-1.26l.71-4.035h-2.52v-1.18h2.716l.551-3.307h-2.5v-1.181h2.717l.689-4.035h1.26l-.69 4.035h3.031l.69-4.035H11.9l-.69 4.035h2.52v1.18h-2.736l-.55 3.307h2.518v1.181h-2.716l-.708 4.035h-1.26l.709-4.035Zm.197-1.18.55-3.307h-3.03l-.551 3.306h3.03Zm12.515 5.451c-1.745 0-3.103-.59-4.074-1.771-.971-1.194-1.456-2.946-1.456-5.255 0-2.31.485-4.08 1.456-5.314.97-1.247 2.329-1.87 4.074-1.87 1.155 0 2.12.262 2.893.787.788.525 1.398 1.266 1.83 2.224l-1.338.807c-.275-.708-.695-1.273-1.26-1.692-.564-.433-1.272-.65-2.125-.65a3.69 3.69 0 0 0-1.594.335c-.46.223-.853.544-1.181.964a4.44 4.44 0 0 0-.728 1.476c-.17.564-.256 1.2-.256 1.91v2.046c0 1.417.328 2.526.984 3.326.656.8 1.581 1.201 2.775 1.201.88 0 1.614-.223 2.204-.67.59-.459 1.024-1.062 1.3-1.81l1.318.827c-.433.97-1.056 1.738-1.87 2.303-.813.55-1.797.826-2.952.826Zm7.382-13.974h5.65c1.14 0 2.033.322 2.676.965.656.642.984 1.502.984 2.578 0 .511-.072.944-.217 1.299a2.84 2.84 0 0 1-.55.886 2.453 2.453 0 0 1-.729.511 3.72 3.72 0 0 1-.728.217v.118c.25.013.525.079.826.197.315.118.61.308.886.57.276.25.505.578.69.985.196.393.294.872.294 1.436s-.092 1.09-.275 1.575a3.74 3.74 0 0 1-.729 1.26 3.57 3.57 0 0 1-1.121.846 3.384 3.384 0 0 1-1.417.295h-6.24V24.14Zm1.654 12.282h4.074c.708 0 1.266-.178 1.673-.532.407-.367.61-.899.61-1.594v-.67c0-.695-.203-1.22-.61-1.574-.407-.367-.965-.551-1.673-.551h-4.074v4.92Zm0-6.338h3.798c.656 0 1.168-.164 1.535-.492.368-.328.552-.8.552-1.417v-.67c0-.616-.184-1.088-.551-1.416-.368-.328-.88-.492-1.536-.492h-3.798v4.487Zm11.205 7.794V24.14h8.188v1.457h-6.535v4.605h5.964v1.457h-5.964v6.219H41.94ZM52.934 24.14h5.649c1.141 0 2.033.322 2.676.965.656.642.984 1.502.984 2.578 0 .511-.072.944-.216 1.299-.144.354-.328.65-.551.886a2.453 2.453 0 0 1-.728.511 3.723 3.723 0 0 1-.729.217v.118c.25.013.525.079.827.197.315.118.61.308.886.57.275.25.505.578.688.985.197.393.296.872.296 1.436s-.092 1.09-.276 1.575c-.17.485-.413.905-.728 1.26a3.57 3.57 0 0 1-1.122.846 3.384 3.384 0 0 1-1.417.295h-6.239V24.14Zm1.653 12.282h4.074c.709 0 1.267-.178 1.673-.532.407-.367.61-.899.61-1.594v-.67c0-.695-.203-1.22-.61-1.574-.407-.367-.964-.551-1.673-.551h-4.074v4.92Zm0-6.338h3.799c.656 0 1.168-.164 1.535-.492.367-.328.551-.8.551-1.417v-.67c0-.616-.184-1.088-.551-1.416-.367-.328-.88-.492-1.535-.492h-3.799v4.487Zm16.756 7.794v-2.697H64.71v-1.456l5.747-9.585h2.46v9.664h1.988v1.377h-1.988v2.697h-1.574Zm-5.078-4.074h5.078V25.42h-.099l-4.98 8.385Zm19.3-8.207h-6.023l-.393 5.235h.137c.328-.46.696-.827 1.102-1.102.42-.276.991-.414 1.713-.414.59 0 1.135.099 1.633.296.499.196.932.479 1.3.846.367.354.649.794.846 1.319.21.524.315 1.121.315 1.79 0 .67-.105 1.287-.315 1.85a4.041 4.041 0 0 1-.925 1.438c-.394.393-.88.701-1.457.925-.564.223-1.207.334-1.929.334a5.45 5.45 0 0 1-1.535-.197 4.487 4.487 0 0 1-1.161-.531 5.093 5.093 0 0 1-.905-.748 8.667 8.667 0 0 1-.69-.866l1.24-.945c.171.276.349.525.532.748.197.223.407.413.63.57.236.158.505.283.807.375.302.079.663.118 1.082.118.945 0 1.66-.25 2.146-.748.485-.498.728-1.2.728-2.106v-.197c0-.905-.243-1.607-.728-2.106-.486-.498-1.2-.747-2.146-.747-.63 0-1.128.118-1.495.354a4.706 4.706 0 0 0-.965.807l-1.397-.197.492-7.558h7.36v1.457Z"/><path fill="#CBFB45" d="M100 61V.063h60.559V61z"/></svg>