<svg xmlns="http://www.w3.org/2000/svg" width="160" height="61" fill="none"><path fill="url(#a)" stroke="#EEE" d="M99.504 60.438h59.559v59.559H99.504z" transform="rotate(-90 99.504 60.438)"/><path fill="#DADADA" d="M7.99 12.965H4.96L4.25 17H2.99l.71-4.035H1.18v-1.18h2.716l.551-3.307h-2.5V7.297h2.717l.688-4.035h1.26l-.689 4.035h3.031l.689-4.035h1.26l-.69 4.035h2.52v1.18H9.998l-.55 3.307h2.518v1.181H9.25L8.542 17h-1.26l.709-4.035Zm.198-1.18.55-3.307h-3.03l-.551 3.306h3.03Zm11.747 5.451c-1.64 0-2.84-.623-3.601-1.87-.748-1.246-1.122-2.991-1.122-5.235s.374-3.989 1.122-5.235c.76-1.247 1.961-1.87 3.601-1.87s2.835.623 3.582 1.87c.762 1.246 1.142 2.991 1.142 5.235s-.38 3.989-1.142 5.235c-.747 1.247-1.941 1.87-3.582 1.87Zm0-1.437c.538 0 .998-.111 1.378-.334a2.56 2.56 0 0 0 .925-.945 4.54 4.54 0 0 0 .512-1.437 8.752 8.752 0 0 0 .177-1.83V9.009c0-.669-.06-1.28-.177-1.83a4.528 4.528 0 0 0-.512-1.437 2.559 2.559 0 0 0-.925-.945c-.38-.223-.84-.334-1.378-.334-.538 0-.997.111-1.377.334-.38.223-.69.538-.925.945A4.884 4.884 0 0 0 17.1 7.18a9.808 9.808 0 0 0-.157 1.83v2.244c0 .67.052 1.28.157 1.83.118.551.295 1.03.532 1.437.236.407.544.722.925.945.38.223.84.334 1.377.334Zm11.802 1.437c-1.64 0-2.841-.623-3.602-1.87-.748-1.246-1.122-2.991-1.122-5.235s.374-3.989 1.122-5.235c.761-1.247 1.961-1.87 3.602-1.87 1.64 0 2.834.623 3.582 1.87.76 1.246 1.141 2.991 1.141 5.235s-.38 3.989-1.141 5.235c-.748 1.247-1.942 1.87-3.582 1.87Zm0-1.437c.538 0 .997-.111 1.377-.334.38-.223.69-.538.925-.945.237-.407.407-.886.512-1.437a8.752 8.752 0 0 0 .177-1.83V9.009c0-.669-.059-1.28-.177-1.83a4.528 4.528 0 0 0-.512-1.437 2.559 2.559 0 0 0-.925-.945c-.38-.223-.84-.334-1.377-.334-.538 0-.997.111-1.378.334a2.56 2.56 0 0 0-.925.945 4.884 4.884 0 0 0-.532 1.437 9.808 9.808 0 0 0-.157 1.83v2.244c0 .67.052 1.28.157 1.83a4.92 4.92 0 0 0 .532 1.437c.236.407.544.722.925.945.38.223.84.334 1.378.334Zm11.801 1.437c-1.64 0-2.84-.623-3.602-1.87-.748-1.246-1.122-2.991-1.122-5.235s.374-3.989 1.122-5.235c.761-1.247 1.962-1.87 3.602-1.87s2.834.623 3.582 1.87c.761 1.246 1.142 2.991 1.142 5.235s-.38 3.989-1.142 5.235c-.748 1.247-1.942 1.87-3.582 1.87Zm0-1.437c.538 0 .997-.111 1.378-.334a2.56 2.56 0 0 0 .925-.945 4.53 4.53 0 0 0 .511-1.437 8.759 8.759 0 0 0 .178-1.83V9.009c0-.669-.06-1.28-.178-1.83a4.53 4.53 0 0 0-.511-1.437 2.558 2.558 0 0 0-.925-.945c-.38-.223-.84-.334-1.378-.334-.538 0-.997.111-1.378.334a2.56 2.56 0 0 0-.925.945 4.884 4.884 0 0 0-.531 1.437 9.808 9.808 0 0 0-.158 1.83v2.244c0 .67.053 1.28.158 1.83.118.551.295 1.03.531 1.437.236.407.545.722.925.945.38.223.84.334 1.378.334Zm11.801 1.437c-1.64 0-2.84-.623-3.602-1.87-.747-1.246-1.121-2.991-1.121-5.235s.374-3.989 1.121-5.235c.762-1.247 1.962-1.87 3.602-1.87s2.834.623 3.582 1.87c.761 1.246 1.142 2.991 1.142 5.235s-.38 3.989-1.142 5.235c-.748 1.247-1.942 1.87-3.582 1.87Zm0-1.437c.538 0 .998-.111 1.378-.334a2.56 2.56 0 0 0 .925-.945 4.53 4.53 0 0 0 .512-1.437 8.759 8.759 0 0 0 .177-1.83V9.009c0-.669-.06-1.28-.177-1.83a4.53 4.53 0 0 0-.512-1.437 2.558 2.558 0 0 0-.925-.945c-.38-.223-.84-.334-1.378-.334-.538 0-.997.111-1.377.334-.38.223-.69.538-.926.945a4.884 4.884 0 0 0-.53 1.437 9.817 9.817 0 0 0-.158 1.83v2.244c0 .67.052 1.28.157 1.83.118.551.295 1.03.531 1.437.237.407.545.722.926.945.38.223.84.334 1.377.334Zm11.802 1.437c-1.64 0-2.841-.623-3.602-1.87-.748-1.246-1.122-2.991-1.122-5.235s.374-3.989 1.122-5.235c.76-1.247 1.962-1.87 3.602-1.87s2.834.623 3.582 1.87c.76 1.246 1.141 2.991 1.141 5.235s-.38 3.989-1.141 5.235c-.748 1.247-1.942 1.87-3.582 1.87Zm0-1.437c.538 0 .997-.111 1.377-.334.38-.223.69-.538.925-.945a4.53 4.53 0 0 0 .512-1.437 8.752 8.752 0 0 0 .177-1.83V9.009c0-.669-.059-1.28-.177-1.83a4.53 4.53 0 0 0-.512-1.437 2.558 2.558 0 0 0-.925-.945c-.38-.223-.84-.334-1.377-.334-.538 0-.998.111-1.378.334a2.56 2.56 0 0 0-.925.945 4.886 4.886 0 0 0-.532 1.437 9.817 9.817 0 0 0-.157 1.83v2.244c0 .67.052 1.28.157 1.83.118.551.296 1.03.532 1.437.236.407.544.722.925.945.38.223.84.334 1.378.334Zm11.8 1.437c-1.64 0-2.84-.623-3.6-1.87-.749-1.246-1.123-2.991-1.123-5.235s.374-3.989 1.122-5.235c.761-1.247 1.962-1.87 3.602-1.87s2.834.623 3.582 1.87c.761 1.246 1.141 2.991 1.141 5.235s-.38 3.989-1.141 5.235c-.748 1.247-1.942 1.87-3.582 1.87Zm0-1.437c.539 0 .998-.111 1.379-.334a2.56 2.56 0 0 0 .925-.945 4.54 4.54 0 0 0 .511-1.437 8.752 8.752 0 0 0 .177-1.83V9.009c0-.669-.059-1.28-.177-1.83a4.533 4.533 0 0 0-.511-1.437 2.559 2.559 0 0 0-.925-.945c-.38-.223-.84-.334-1.378-.334-.538 0-.997.111-1.378.334a2.56 2.56 0 0 0-.925.945 4.886 4.886 0 0 0-.531 1.437 9.817 9.817 0 0 0-.158 1.83v2.244c0 .67.053 1.28.158 1.83.118.551.295 1.03.531 1.437.236.407.545.722.925.945.38.223.84.334 1.378.334ZM7.99 53.965H4.96L4.25 58H2.99l.71-4.035H1.18v-1.18h2.716l.551-3.307h-2.5v-1.181h2.717l.688-4.035h1.26l-.689 4.035h3.031l.689-4.035h1.26l-.69 4.035h2.52v1.18H9.998l-.55 3.307h2.518v1.181H9.25L8.542 58h-1.26l.709-4.035Zm.198-1.18.55-3.307h-3.03l-.551 3.306h3.03ZM24.52 58h-9.014v-1.693l4.487-4.133a10.11 10.11 0 0 0 1.614-1.87c.433-.669.65-1.338.65-2.007v-.236c0-.761-.21-1.378-.63-1.85-.42-.473-1.056-.709-1.91-.709-.419 0-.786.06-1.101.177a2.61 2.61 0 0 0-.827.492 2.97 2.97 0 0 0-.57.748 4.651 4.651 0 0 0-.355.906l-1.476-.571c.131-.407.308-.8.531-1.181a4.44 4.44 0 0 1 .866-1.043 4.23 4.23 0 0 1 1.26-.728c.498-.184 1.082-.276 1.752-.276.669 0 1.266.098 1.79.295a3.66 3.66 0 0 1 1.32.827c.354.354.622.774.806 1.26a4.25 4.25 0 0 1 .296 1.613c0 .538-.08 1.037-.237 1.496-.144.46-.347.899-.61 1.319a7.905 7.905 0 0 1-.964 1.2 20.72 20.72 0 0 1-1.2 1.181l-3.701 3.327h7.223V58Zm6.448-7.912c.932 0 1.627-.21 2.086-.63.473-.433.709-.984.709-1.653v-.138c0-.721-.23-1.26-.689-1.614-.446-.367-1.037-.55-1.771-.55-.709 0-1.286.157-1.732.471a3.498 3.498 0 0 0-1.102 1.24l-1.22-.944a5.52 5.52 0 0 1 .61-.807 4.19 4.19 0 0 1 .865-.728 4.56 4.56 0 0 1 1.142-.512 5.09 5.09 0 0 1 1.476-.197c.577 0 1.122.079 1.634.236.511.145.95.368 1.318.67.38.288.676.649.886 1.082.223.433.335.925.335 1.476 0 .446-.073.846-.217 1.2a2.843 2.843 0 0 1-.551.926 3.291 3.291 0 0 1-.846.669 3.893 3.893 0 0 1-1.024.413v.079c.368.079.722.21 1.063.393.354.171.663.4.925.69.276.275.492.616.65 1.023.17.393.255.846.255 1.358 0 .59-.111 1.135-.334 1.633a3.703 3.703 0 0 1-.945 1.26 4.56 4.56 0 0 1-1.476.807 5.887 5.887 0 0 1-1.91.295c-.59 0-1.114-.065-1.574-.197a4.701 4.701 0 0 1-1.22-.531 5.397 5.397 0 0 1-.945-.748 7.31 7.31 0 0 1-.708-.866l1.24-.945c.17.276.354.525.55.748a3.312 3.312 0 0 0 1.535.945c.316.079.683.118 1.103.118.971 0 1.706-.216 2.204-.65.5-.446.748-1.075.748-1.889v-.157c0-.814-.249-1.437-.748-1.87-.498-.446-1.233-.67-2.204-.67h-1.614v-1.436h1.496ZM48.124 58H39.11v-1.693l4.487-4.133a10.1 10.1 0 0 0 1.614-1.87c.433-.669.65-1.338.65-2.007v-.236c0-.761-.21-1.378-.63-1.85-.42-.473-1.057-.709-1.91-.709-.42 0-.787.06-1.102.177a2.61 2.61 0 0 0-.826.492c-.223.21-.414.46-.571.748a4.651 4.651 0 0 0-.354.906l-1.477-.571c.132-.407.309-.8.532-1.181.236-.394.525-.741.866-1.043a4.232 4.232 0 0 1 1.26-.728c.498-.184 1.082-.276 1.751-.276.67 0 1.266.098 1.791.295.525.197.965.473 1.319.827s.623.774.807 1.26a4.25 4.25 0 0 1 .295 1.613c0 .538-.079 1.037-.236 1.496-.144.46-.348.899-.61 1.319a7.905 7.905 0 0 1-.965 1.2c-.367.394-.767.788-1.2 1.181l-3.7 3.327h7.223V58Zm6.448-7.912c.931 0 1.627-.21 2.086-.63.472-.433.709-.984.709-1.653v-.138c0-.721-.23-1.26-.69-1.614-.446-.367-1.036-.55-1.77-.55-.71 0-1.287.157-1.733.471a3.498 3.498 0 0 0-1.102 1.24l-1.22-.944c.17-.276.374-.545.61-.807.25-.276.538-.519.866-.728a4.56 4.56 0 0 1 1.141-.512 5.09 5.09 0 0 1 1.477-.197c.577 0 1.122.079 1.633.236.512.145.952.368 1.319.67.38.288.676.649.886 1.082.223.433.334.925.334 1.476 0 .446-.072.846-.216 1.2a2.843 2.843 0 0 1-.551.926 3.291 3.291 0 0 1-.847.669 3.892 3.892 0 0 1-1.023.413v.079c.367.079.721.21 1.063.393.354.171.662.4.925.69.275.275.492.616.65 1.023.17.393.255.846.255 1.358 0 .59-.111 1.135-.335 1.633a3.703 3.703 0 0 1-.944 1.26c-.407.341-.9.61-1.476.807a5.886 5.886 0 0 1-1.91.295c-.59 0-1.115-.065-1.574-.197a4.701 4.701 0 0 1-1.22-.531 5.392 5.392 0 0 1-.945-.748 7.312 7.312 0 0 1-.709-.866l1.24-.945a5.5 5.5 0 0 0 .551.748 3.312 3.312 0 0 0 1.535.945c.316.079.683.118 1.103.118.97 0 1.706-.216 2.204-.65.499-.446.748-1.075.748-1.889v-.157c0-.814-.25-1.437-.748-1.87-.498-.446-1.233-.67-2.204-.67h-1.614v-1.436h1.496ZM71.726 58h-9.014v-1.693l4.488-4.133a10.1 10.1 0 0 0 1.614-1.87c.433-.669.649-1.338.649-2.007v-.236c0-.761-.21-1.378-.63-1.85-.42-.473-1.056-.709-1.909-.709-.42 0-.787.06-1.102.177a2.61 2.61 0 0 0-.827.492c-.223.21-.413.46-.57.748a4.645 4.645 0 0 0-.355.906l-1.476-.571c.131-.407.309-.8.532-1.181.236-.394.524-.741.866-1.043a4.232 4.232 0 0 1 1.26-.728c.498-.184 1.082-.276 1.75-.276.67 0 1.267.098 1.792.295.525.197.964.473 1.319.827.354.354.623.774.806 1.26a4.25 4.25 0 0 1 .296 1.613 4.57 4.57 0 0 1-.237 1.496c-.144.46-.347.899-.61 1.319a7.9 7.9 0 0 1-.964 1.2c-.367.394-.768.788-1.2 1.181l-3.7 3.327h7.222V58Zm6.448-7.912c.932 0 1.627-.21 2.087-.63.472-.433.708-.984.708-1.653v-.138c0-.721-.23-1.26-.689-1.614-.446-.367-1.036-.55-1.771-.55-.709 0-1.286.157-1.732.471a3.498 3.498 0 0 0-1.102 1.24l-1.22-.944a5.52 5.52 0 0 1 .61-.807c.249-.276.538-.519.866-.728a4.56 4.56 0 0 1 1.141-.512 5.09 5.09 0 0 1 1.476-.197c.578 0 1.122.079 1.634.236.512.145.951.368 1.319.67.38.288.675.649.885 1.082.223.433.335.925.335 1.476 0 .446-.072.846-.217 1.2a2.842 2.842 0 0 1-.55.926 3.291 3.291 0 0 1-.847.669 3.892 3.892 0 0 1-1.024.413v.079c.368.079.722.21 1.063.393.355.171.663.4.925.69.276.275.492.616.65 1.023.17.393.256.846.256 1.358 0 .59-.112 1.135-.335 1.633a3.703 3.703 0 0 1-.945 1.26 4.55 4.55 0 0 1-1.476.807 5.886 5.886 0 0 1-1.909.295 5.74 5.74 0 0 1-1.574-.197 4.702 4.702 0 0 1-1.22-.531 5.392 5.392 0 0 1-.945-.748 7.312 7.312 0 0 1-.709-.866l1.24-.945c.17.276.354.525.551.748a3.312 3.312 0 0 0 1.535.945c.315.079.683.118 1.102.118.971 0 1.706-.216 2.205-.65.498-.446.748-1.075.748-1.889v-.157c0-.814-.25-1.437-.748-1.87-.499-.446-1.234-.67-2.205-.67h-1.614v-1.436h1.496ZM43.79 32.479l.714-.729 1.278 1.294.625.743.044-.015-.089-1.442V25h1.011v7.33l-.09 1.442.045.015.625-.743 1.279-1.294.713.729-3.077 3.078-3.078-3.078Z"/><defs><linearGradient id="a" x1="159.563" x2="99.004" y1="91.217" y2="91.217" gradientUnits="userSpaceOnUse"><stop/><stop offset="1" stop-color="#232323"/></linearGradient></defs></svg>