<svg xmlns="http://www.w3.org/2000/svg" width="159" height="61" fill="none"><path fill="#DADADA" d="M7.99 33.844H4.96l-.71 4.036H2.99l.71-4.035H1.18v-1.18h2.716l.551-3.307h-2.5v-1.181h2.717l.688-4.035h1.26l-.689 4.035h3.031l.689-4.035h1.26l-.69 4.035h2.52v1.18H9.998l-.55 3.307h2.518v1.181H9.25l-.708 4.035h-1.26l.709-4.035Zm.198-1.18.55-3.307h-3.03l-.551 3.306h3.03Zm15.644-7.066H17.81l-.394 5.235h.138c.328-.46.695-.827 1.102-1.102.42-.276.99-.414 1.712-.414.59 0 1.135.099 1.634.296.498.196.931.479 1.299.846.367.354.65.794.846 1.319.21.524.315 1.121.315 1.79 0 .67-.105 1.287-.315 1.85a4.04 4.04 0 0 1-.925 1.438 4.152 4.152 0 0 1-1.456.925c-.564.223-1.207.334-1.929.334a5.45 5.45 0 0 1-1.535-.197 4.486 4.486 0 0 1-1.161-.531 5.09 5.09 0 0 1-.906-.748 8.666 8.666 0 0 1-.689-.866l1.24-.945c.17.276.348.525.532.748.197.223.406.413.63.57.236.158.505.283.806.375.302.079.663.118 1.083.118.945 0 1.66-.25 2.145-.748.486-.498.729-1.2.729-2.106v-.197c0-.905-.243-1.607-.729-2.106-.485-.498-1.2-.747-2.145-.747-.63 0-1.128.118-1.496.354a4.707 4.707 0 0 0-.964.807l-1.398-.197.492-7.558h7.361v1.457Zm12.49 3.582a9.09 9.09 0 0 1-.452 2.893 10.924 10.924 0 0 1-1.181 2.46 11.77 11.77 0 0 1-1.575 1.968 10.858 10.858 0 0 1-1.692 1.378h-2.126a27.17 27.17 0 0 0 1.968-1.575 12.267 12.267 0 0 0 1.516-1.594c.433-.564.8-1.161 1.102-1.79a10.79 10.79 0 0 0 .728-2.166l-.098-.04a4.564 4.564 0 0 1-1.28 1.418c-.511.367-1.187.55-2.027.55a4.41 4.41 0 0 1-1.633-.294 3.575 3.575 0 0 1-1.28-.847 4.138 4.138 0 0 1-.846-1.318c-.197-.525-.295-1.116-.295-1.772 0-.669.105-1.279.315-1.83a4.173 4.173 0 0 1 .925-1.437 4.279 4.279 0 0 1 1.437-.945c.564-.223 1.194-.334 1.889-.334.709 0 1.345.125 1.91.374a3.766 3.766 0 0 1 1.456 1.043c.406.446.715.997.925 1.653.21.656.314 1.391.314 2.205Zm-4.585 2.106c.905 0 1.607-.25 2.106-.748.511-.499.767-1.214.767-2.146v-.157c0-.932-.256-1.647-.767-2.145-.499-.499-1.201-.748-2.106-.748-.906 0-1.614.249-2.126.748-.499.498-.748 1.213-.748 2.145v.157c0 .932.25 1.647.748 2.146.512.498 1.22.748 2.126.748Zm15.698-5.688h-6.023l-.393 5.235h.138c.328-.46.695-.827 1.102-1.102.42-.276.99-.414 1.712-.414.59 0 1.135.099 1.634.296.498.196.931.479 1.299.846.367.354.649.794.846 1.319.21.524.315 1.121.315 1.79 0 .67-.105 1.287-.315 1.85a4.042 4.042 0 0 1-.925 1.438c-.394.393-.88.701-1.457.925-.564.223-1.207.334-1.928.334a5.45 5.45 0 0 1-1.536-.197 4.486 4.486 0 0 1-1.16-.531 5.09 5.09 0 0 1-.906-.748 8.666 8.666 0 0 1-.689-.866l1.24-.945c.17.276.348.525.531.748.197.223.407.413.63.57.236.158.505.283.807.375.302.079.663.118 1.083.118.944 0 1.66-.25 2.145-.748.485-.498.728-1.2.728-2.106v-.197c0-.905-.243-1.607-.728-2.106-.486-.498-1.2-.747-2.145-.747-.63 0-1.129.118-1.496.354a4.704 4.704 0 0 0-.965.807l-1.397-.197.492-7.558h7.36v1.457Zm12.49 3.582a9.09 9.09 0 0 1-.453 2.893 10.924 10.924 0 0 1-1.18 2.46 11.77 11.77 0 0 1-1.575 1.968 10.853 10.853 0 0 1-1.693 1.378H52.9a27.188 27.188 0 0 0 1.968-1.575 12.267 12.267 0 0 0 1.515-1.594c.433-.564.8-1.161 1.103-1.79.301-.644.544-1.366.728-2.166l-.099-.04a4.564 4.564 0 0 1-1.279 1.418c-.512.367-1.187.55-2.027.55a4.41 4.41 0 0 1-1.634-.294 3.575 3.575 0 0 1-1.279-.847 4.138 4.138 0 0 1-.846-1.318c-.197-.525-.295-1.116-.295-1.772 0-.669.104-1.279.314-1.83a4.171 4.171 0 0 1 .925-1.437 4.28 4.28 0 0 1 1.437-.945c.564-.223 1.194-.334 1.89-.334.708 0 1.344.125 1.909.374a3.766 3.766 0 0 1 1.456 1.043c.407.446.715.997.925 1.653.21.656.315 1.391.315 2.205Zm-4.586 2.106c.906 0 1.608-.25 2.106-.748.512-.499.768-1.214.768-2.146v-.157c0-.932-.256-1.647-.768-2.145-.498-.499-1.2-.748-2.106-.748-.905 0-1.614.249-2.125.748-.499.498-.748 1.213-.748 2.145v.157c0 .932.25 1.647.748 2.146.511.498 1.22.748 2.125.748Zm15.699-5.688h-6.023l-.394 5.235h.138c.328-.46.695-.827 1.102-1.102.42-.276.99-.414 1.713-.414.59 0 1.135.099 1.633.296.499.196.932.479 1.3.846.367.354.649.794.846 1.319.21.524.314 1.121.314 1.79 0 .67-.105 1.287-.314 1.85a4.042 4.042 0 0 1-.926 1.438 4.152 4.152 0 0 1-1.456.925c-.564.223-1.207.334-1.929.334a5.45 5.45 0 0 1-1.535-.197 4.486 4.486 0 0 1-1.161-.531 5.094 5.094 0 0 1-.906-.748 8.666 8.666 0 0 1-.688-.866l1.24-.945c.17.276.347.525.53.748.198.223.408.413.63.57.237.158.506.283.808.375.302.079.662.118 1.082.118.945 0 1.66-.25 2.145-.748.486-.498.729-1.2.729-2.106v-.197c0-.905-.243-1.607-.728-2.106-.486-.498-1.201-.747-2.146-.747-.63 0-1.128.118-1.496.354a4.704 4.704 0 0 0-.964.807l-1.397-.197.492-7.558h7.36v1.457Zm12.49 3.582a9.09 9.09 0 0 1-.453 2.893 10.92 10.92 0 0 1-1.18 2.46 11.77 11.77 0 0 1-1.575 1.968 10.853 10.853 0 0 1-1.693 1.378h-2.126a27.166 27.166 0 0 0 1.968-1.575 12.26 12.26 0 0 0 1.516-1.594c.433-.564.8-1.161 1.102-1.79.302-.644.545-1.366.728-2.166l-.098-.04a4.564 4.564 0 0 1-1.28 1.418c-.511.367-1.187.55-2.026.55a4.41 4.41 0 0 1-1.634-.294 3.575 3.575 0 0 1-1.28-.847 4.138 4.138 0 0 1-.846-1.318c-.197-.525-.295-1.116-.295-1.772 0-.669.105-1.279.315-1.83a4.171 4.171 0 0 1 .925-1.437 4.28 4.28 0 0 1 1.437-.945c.564-.223 1.194-.334 1.89-.334.708 0 1.344.125 1.908.374a3.765 3.765 0 0 1 1.457 1.043c.407.446.715.997.925 1.653.21.656.315 1.391.315 2.205Zm-4.586 2.106c.905 0 1.607-.25 2.106-.748.512-.499.767-1.214.767-2.146v-.157c0-.932-.255-1.647-.767-2.145-.499-.499-1.2-.748-2.106-.748-.905 0-1.614.249-2.126.748-.498.498-.748 1.213-.748 2.145v.157c0 .932.25 1.647.748 2.146.512.498 1.22.748 2.126.748Z"/><path fill="#595959" d="M98.004 61V.44h60.559V61z"/></svg>