<svg xmlns="http://www.w3.org/2000/svg" width="984" height="597" fill="none"><path fill="#EEE" d="M37.524 310.375h9.006v2.628h-6.04v13.048h-2.965v-15.676Zm8.673 13.049h1.797c.27-.285.501-.629.696-1.034.21-.404.382-.92.517-1.549.15-.644.254-1.423.314-2.336.075-.928.112-2.044.112-3.346v-4.784h10.578v15.676h-2.964v-13.048h-4.739v2.537c0 1.453-.052 2.703-.157 3.751-.105 1.048-.247 1.947-.427 2.695-.18.734-.397 1.34-.651 1.819a5.524 5.524 0 0 1-.831 1.168c-.42.419-.876.719-1.37.899-.494.179-1.1.269-1.82.269h-1.055v-2.717Zm27.392 2.627-1.257-3.997h-5.57l-1.235 3.997h-3.01l5.255-15.676h3.684l5.21 15.676H73.59Zm-3.997-12.981h-.113l-1.998 6.446h4.132l-2.021-6.446Zm9.385-2.695h7.254c.644 0 1.22.097 1.73.292.523.194.965.464 1.324.808.36.345.63.771.809 1.281.195.494.292 1.04.292 1.639s-.082 1.108-.247 1.527a2.78 2.78 0 0 1-.629 1.011 2.444 2.444 0 0 1-.898.606c-.33.135-.674.21-1.033.225v.135c.344 0 .71.067 1.1.202a3.07 3.07 0 0 1 1.1.651c.345.285.63.659.854 1.123.225.449.337 1.011.337 1.684 0 .629-.105 1.221-.314 1.775a4.317 4.317 0 0 1-.832 1.415 4.06 4.06 0 0 1-1.28.965 3.855 3.855 0 0 1-1.617.337h-7.95v-15.676Zm2.964 13.161h4.133c.569 0 1.01-.142 1.325-.427.314-.299.472-.726.472-1.28v-.764c0-.554-.158-.98-.472-1.28-.314-.299-.756-.449-1.325-.449H81.94v4.2Zm0-6.626h3.661c.54 0 .958-.142 1.258-.426.3-.3.45-.711.45-1.236v-.696c0-.524-.15-.928-.45-1.213-.3-.299-.719-.449-1.258-.449h-3.66v4.02Zm21.428 2.516h-6.535v6.625h-2.965v-15.676h2.965v6.423h6.535v-6.423h2.965v15.676h-2.965v-6.625Zm16.345 6.625-1.258-3.997h-5.57l-1.235 3.997h-3.01l5.256-15.676h3.683l5.211 15.676h-3.077Zm-3.998-12.981h-.112l-1.999 6.446h4.132l-2.021-6.446Zm8.487 10.354h1.37l1.482-2.516c.195-.344.397-.606.606-.786.225-.18.532-.307.921-.382v-.134c-1.227-.09-2.186-.525-2.874-1.303-.674-.779-1.011-1.804-1.011-3.077 0-.734.105-1.4.314-1.999a4.582 4.582 0 0 1 .921-1.527 3.938 3.938 0 0 1 1.46-.988c.569-.225 1.213-.337 1.931-.337h7.075v15.676h-2.965v-6.041h-2.47l-2.628 4.424c-.389.659-.778 1.093-1.168 1.303-.374.209-.838.314-1.392.314h-1.572v-2.627Zm9.23-5.907v-4.559h-3.818c-.569 0-1.018.149-1.347.449-.33.299-.494.733-.494 1.302v1.034c0 .569.164 1.01.494 1.325.329.299.778.449 1.347.449h3.818Z"/><path stroke="#595959" stroke-width="1.773" d="M.887 293.91a5.023 5.023 0 0 1 5.023-5.023h162.103a5.023 5.023 0 0 1 5.024 5.023v47.283a5.023 5.023 0 0 1-5.024 5.023H5.91a5.023 5.023 0 0 1-5.023-5.023V293.91Z"/><path fill="#EEE" d="M220.841 310.375h12.128v15.676h-2.965v-13.048h-6.198v13.048h-2.965v-15.676Zm21.967 15.946c-1.033 0-1.968-.172-2.807-.517a5.688 5.688 0 0 1-2.156-1.549c-.584-.689-1.041-1.535-1.37-2.538-.329-1.004-.494-2.171-.494-3.504 0-1.318.165-2.478.494-3.481.329-1.018.786-1.872 1.37-2.56a5.68 5.68 0 0 1 2.156-1.55c.839-.344 1.774-.517 2.807-.517 1.034 0 1.969.173 2.808.517a5.68 5.68 0 0 1 2.156 1.55c.599.688 1.055 1.542 1.37 2.56.329 1.003.494 2.163.494 3.481 0 1.333-.165 2.5-.494 3.504-.315 1.003-.771 1.849-1.37 2.538a5.688 5.688 0 0 1-2.156 1.549c-.839.345-1.774.517-2.808.517Zm0-2.628c1.123 0 2.014-.374 2.673-1.123.674-.749 1.011-1.797 1.011-3.144V317c0-1.347-.337-2.395-1.011-3.144-.659-.749-1.55-1.123-2.673-1.123s-2.021.374-2.695 1.123c-.658.749-.988 1.797-.988 3.144v2.426c0 1.347.33 2.395.988 3.144.674.749 1.572 1.123 2.695 1.123Zm7.717-.269h1.684c.285-.315.539-.697.764-1.146.239-.449.441-.996.606-1.639.165-.659.292-1.43.382-2.314.105-.883.157-1.909.157-3.077v-4.873h10.713v13.049h2.426v5.996h-2.785v-3.369H253.31v3.369h-2.785v-5.996Zm11.342 0v-10.421h-4.874v2.627c0 1.078-.038 2.029-.112 2.853-.06.808-.15 1.519-.27 2.133a8.914 8.914 0 0 1-.449 1.595 4.949 4.949 0 0 1-.584 1.123v.09h6.289Zm7.884-13.049h10.286v2.628h-7.321v3.436h4.199c.719 0 1.363.12 1.932.359a3.95 3.95 0 0 1 1.46.988c.404.42.711.929.921 1.528.209.583.314 1.235.314 1.953 0 .704-.105 1.356-.314 1.954a4.17 4.17 0 0 1-.921 1.505 4.333 4.333 0 0 1-1.46.988c-.569.225-1.213.337-1.932.337h-7.164v-15.676Zm6.873 13.093c.568 0 1.018-.149 1.347-.449.329-.299.494-.756.494-1.37v-.808c0-.599-.165-1.048-.494-1.348-.329-.314-.779-.471-1.347-.471h-3.908v4.446h3.908Zm13.91 2.853c-1.033 0-1.969-.172-2.807-.517a5.683 5.683 0 0 1-2.157-1.549c-.583-.689-1.04-1.535-1.37-2.538-.329-1.004-.494-2.171-.494-3.504 0-1.318.165-2.478.494-3.481.33-1.018.787-1.872 1.37-2.56a5.675 5.675 0 0 1 2.157-1.55c.838-.344 1.774-.517 2.807-.517s1.969.173 2.807.517a5.672 5.672 0 0 1 2.156 1.55c.599.688 1.056 1.542 1.37 2.56.33 1.003.494 2.163.494 3.481 0 1.333-.164 2.5-.494 3.504-.314 1.003-.771 1.849-1.37 2.538a5.68 5.68 0 0 1-2.156 1.549c-.838.345-1.774.517-2.807.517Zm0-2.628c1.123 0 2.014-.374 2.673-1.123.673-.749 1.01-1.797 1.01-3.144V317c0-1.347-.337-2.395-1.01-3.144-.659-.749-1.55-1.123-2.673-1.123s-2.021.374-2.695 1.123c-.659.749-.988 1.797-.988 3.144v2.426c0 1.347.329 2.395.988 3.144.674.749 1.572 1.123 2.695 1.123Zm9.835 2.358v-15.676h7.052c.719 0 1.363.12 1.932.359a3.914 3.914 0 0 1 1.482.988c.404.42.711.929.921 1.528a5.96 5.96 0 0 1 .314 1.976c0 .734-.105 1.4-.314 1.999a4.397 4.397 0 0 1-.921 1.527 4.281 4.281 0 0 1-1.482.988c-.569.225-1.213.337-1.932.337h-4.087v5.974h-2.965Zm2.965-8.534h3.818c.569 0 1.018-.15 1.347-.449.33-.315.494-.756.494-1.325v-1.034c0-.569-.164-1.003-.494-1.302-.329-.3-.778-.449-1.347-.449h-3.818v4.559Zm11.423-7.142h2.964v6.423h2.493l2.561-4.626c.344-.629.718-1.086 1.123-1.37.404-.285.913-.427 1.527-.427h1.28v2.628h-1.392l-1.954 3.526c-.24.419-.479.733-.719.943a2.333 2.333 0 0 1-.831.449v.135c.374.075.689.224.943.449.27.21.532.539.786.988l2.156 3.931h1.393v2.627h-1.662c-.569 0-1.041-.127-1.415-.382-.374-.269-.749-.741-1.123-1.414l-2.673-4.874h-2.493v6.67h-2.964v-15.676Zm15.068 0h2.874v8.31l-.292 3.256h.068l1.549-2.942 5.615-8.624h2.65v15.676h-2.874v-8.31l.292-3.256h-.068l-1.549 2.92-5.615 8.646h-2.65v-15.676Z"/><path stroke="#595959" stroke-width="1.773" d="M183.988 293.91a5.023 5.023 0 0 1 5.024-5.023h185.103a5.023 5.023 0 0 1 5.023 5.023v47.283a5.023 5.023 0 0 1-5.023 5.023H189.012a5.023 5.023 0 0 1-5.024-5.023V293.91Z"/><path fill="#EEE" d="M426.982 310.375h2.964v6.423h2.493l2.561-4.626c.344-.629.718-1.086 1.123-1.37.404-.285.913-.427 1.527-.427h1.28v2.628h-1.393l-1.953 3.526c-.24.419-.48.733-.719.943a2.333 2.333 0 0 1-.831.449v.135c.374.075.689.224.943.449.27.21.532.539.786.988l2.156 3.931h1.393v2.627h-1.662c-.569 0-1.041-.127-1.415-.382-.374-.269-.749-.741-1.123-1.414l-2.673-4.874h-2.493v6.67h-2.964v-15.676Zm24.77 15.676-1.258-3.997h-5.57l-1.235 3.997h-3.01l5.256-15.676h3.683l5.211 15.676h-3.077Zm-3.998-12.981h-.112l-1.999 6.446h4.132l-2.021-6.446Zm14.069-.067v13.048h-2.964v-13.048h-4.447v-2.628h11.858v2.628h-4.447Zm15.107 13.048-1.257-3.997h-5.57l-1.235 3.997h-3.01l5.256-15.676h3.683l5.21 15.676h-3.077Zm-3.997-12.981h-.113l-1.998 6.446h4.132l-2.021-6.446Zm7.969 10.354h1.797c.269-.285.501-.629.696-1.034.209-.404.382-.92.516-1.549.15-.644.255-1.423.315-2.336.075-.928.112-2.044.112-3.346v-4.784h10.578v15.676h-2.964v-13.048h-4.739v2.537c0 1.453-.053 2.703-.157 3.751-.105 1.048-.247 1.947-.427 2.695-.18.734-.397 1.34-.651 1.819a5.56 5.56 0 0 1-.831 1.168c-.42.419-.876.719-1.37.899-.494.179-1.101.269-1.82.269h-1.055v-2.717Zm23.844 2.897c-1.033 0-1.969-.172-2.808-.517a5.688 5.688 0 0 1-2.156-1.549c-.584-.689-1.04-1.535-1.37-2.538-.329-1.004-.494-2.171-.494-3.504 0-1.318.165-2.478.494-3.481.33-1.018.786-1.872 1.37-2.56a5.68 5.68 0 0 1 2.156-1.55c.839-.344 1.775-.517 2.808-.517s1.969.173 2.807.517a5.672 5.672 0 0 1 2.156 1.55c.599.688 1.056 1.542 1.37 2.56.33 1.003.494 2.163.494 3.481 0 1.333-.164 2.5-.494 3.504-.314 1.003-.771 1.849-1.37 2.538a5.68 5.68 0 0 1-2.156 1.549c-.838.345-1.774.517-2.807.517Zm0-2.628c1.123 0 2.014-.374 2.672-1.123.674-.749 1.011-1.797 1.011-3.144V317c0-1.347-.337-2.395-1.011-3.144-.658-.749-1.549-1.123-2.672-1.123-1.123 0-2.022.374-2.695 1.123-.659.749-.989 1.797-.989 3.144v2.426c0 1.347.33 2.395.989 3.144.673.749 1.572 1.123 2.695 1.123Zm9.835-13.318h9.006v2.628h-6.042v13.048h-2.964v-15.676Z"/><path stroke="#595959" stroke-width="1.773" d="M390.09 293.91a5.023 5.023 0 0 1 5.023-5.023h159.103a5.023 5.023 0 0 1 5.024 5.023v47.283a5.023 5.023 0 0 1-5.024 5.023H395.113a5.023 5.023 0 0 1-5.023-5.023V293.91Z"/><path fill="#CBFB45" d="M571.314 293.91a3.902 3.902 0 0 1 3.901-3.901h173.103a3.902 3.902 0 0 1 3.901 3.901v47.283a3.9 3.9 0 0 1-3.901 3.9H575.215a3.9 3.9 0 0 1-3.901-3.9V293.91Z"/><path fill="#181818" d="M611.984 326.321c-.749 0-1.467-.12-2.156-.36a5.174 5.174 0 0 1-1.797-1.145c-.509-.524-.921-1.183-1.235-1.976-.3-.809-.449-1.767-.449-2.875 0-1.348.202-2.62.606-3.818.404-1.198.966-2.246 1.685-3.144a7.856 7.856 0 0 1 2.56-2.112 6.795 6.795 0 0 1 3.234-.786 6 6 0 0 1 2.134.382 4.57 4.57 0 0 1 1.796 1.146c.524.509.936 1.167 1.236 1.976.314.794.471 1.744.471 2.852 0 1.348-.202 2.62-.606 3.818-.404 1.198-.966 2.246-1.685 3.145a8.129 8.129 0 0 1-2.56 2.133 6.957 6.957 0 0 1-3.234.764Zm.225-2.897c1.048 0 1.909-.352 2.582-1.056.674-.704 1.138-1.692 1.393-2.965l.471-2.358c.045-.239.075-.449.09-.629.015-.194.023-.374.023-.539 0-1.916-.854-2.874-2.561-2.874-1.048 0-1.909.351-2.582 1.055-.674.704-1.138 1.692-1.393 2.965l-.471 2.358a5.285 5.285 0 0 0-.09.629 7.046 7.046 0 0 0-.023.539c0 1.916.854 2.875 2.561 2.875Zm15.848-13.049h12.015l-3.144 15.676h-3.257l2.561-12.779h-5.503l-2.56 12.779h-3.257l3.145-15.676Zm11.444 15.676 3.144-15.676h5.907c1.572 0 2.785.367 3.638 1.1.869.734 1.303 1.767 1.303 3.1 0 .853-.15 1.639-.449 2.358a5.36 5.36 0 0 1-1.258 1.819 5.966 5.966 0 0 1-1.931 1.168 7.193 7.193 0 0 1-2.448.404h-3.504l-1.145 5.727h-3.257Zm4.986-8.602h3.346c.509 0 .944-.134 1.303-.404.374-.269.621-.681.741-1.235l.18-.831c.045-.225.067-.397.067-.517 0-.344-.12-.628-.359-.853-.225-.24-.584-.359-1.078-.359h-3.369l-.831 4.199Zm14.951 8.872c-.748 0-1.467-.12-2.156-.36a5.18 5.18 0 0 1-1.796-1.145c-.509-.524-.921-1.183-1.236-1.976-.299-.809-.449-1.767-.449-2.875 0-1.348.202-2.62.607-3.818.404-1.198.965-2.246 1.684-3.144a7.866 7.866 0 0 1 2.56-2.112 6.8 6.8 0 0 1 3.234-.786 6 6 0 0 1 2.134.382c.689.24 1.288.622 1.797 1.146.524.509.936 1.167 1.235 1.976.314.794.472 1.744.472 2.852 0 1.348-.202 2.62-.607 3.818-.404 1.198-.965 2.246-1.684 3.145a8.132 8.132 0 0 1-2.561 2.133 6.957 6.957 0 0 1-3.234.764Zm.225-2.897c1.048 0 1.909-.352 2.583-1.056.674-.704 1.138-1.692 1.392-2.965l.472-2.358c.045-.239.075-.449.09-.629.015-.194.022-.374.022-.539 0-1.916-.853-2.874-2.56-2.874-1.048 0-1.909.351-2.583 1.055-.674.704-1.138 1.692-1.392 2.965l-.472 2.358a5.285 5.285 0 0 0-.09.629 7.017 7.017 0 0 0-.022.539c0 1.916.853 2.875 2.56 2.875Zm8.182 2.627 3.144-15.676h10.084l-.583 2.875h-6.806l-.696 3.436h6.019l-.584 2.875h-6.019l-.718 3.616h7.052l-.584 2.874h-10.309Zm15.342-15.676h3.257l-1.28 6.311h2.246l3.324-4.717c.404-.569.808-.973 1.212-1.212.42-.255.974-.382 1.662-.382h1.438l-.584 2.897h-1.19l-2.224 3.167c-.344.479-.674.823-.988 1.033-.315.21-.689.352-1.123.427l-.022.134c.299.12.546.292.741.517.209.225.381.546.516.966l1.168 3.638h1.325l-.584 2.897h-1.145c-.389 0-.719-.03-.988-.09a1.93 1.93 0 0 1-.719-.314 2.187 2.187 0 0 1-.517-.584 6.07 6.07 0 0 1-.381-.921l-1.483-4.581h-2.246l-1.302 6.49h-3.257l3.144-15.676Zm19.681 2.875-2.561 12.801h-3.256l2.56-12.801h-4.132l.584-2.875h11.521L707 313.25h-4.132Zm3.107 12.801 3.144-15.676h10.084l-.584 2.875h-6.805l-.696 3.436h6.019l-.584 2.875h-6.019l-.719 3.616h7.052l-.584 2.874h-10.308Z"/><path stroke="#CBFB45" stroke-width="4.019" d="M571.314 293.91a3.902 3.902 0 0 1 3.901-3.901h173.103a3.902 3.902 0 0 1 3.901 3.901v47.283a3.9 3.9 0 0 1-3.901 3.9H575.215a3.9 3.9 0 0 1-3.901-3.9V293.91Z"/><path fill="#EEE" d="M807.066 313.003v13.048h-2.965v-13.048h-4.447v-2.628h11.859v2.628h-4.447Zm6.874 13.048v-15.676h7.052c.719 0 1.363.12 1.932.359a3.921 3.921 0 0 1 1.482.988c.404.42.711.929.921 1.528a5.96 5.96 0 0 1 .314 1.976c0 .734-.105 1.4-.314 1.999a4.397 4.397 0 0 1-.921 1.527 4.29 4.29 0 0 1-1.482.988c-.569.225-1.213.337-1.932.337h-4.088v5.974h-2.964Zm2.964-8.534h3.819c.568 0 1.018-.15 1.347-.449.329-.315.494-.756.494-1.325v-1.034c0-.569-.165-1.003-.494-1.302-.329-.3-.779-.449-1.347-.449h-3.819v4.559Zm11.424 8.534v-15.676h10.331v2.628h-7.367v3.795h6.513v2.628h-6.513v3.998h7.367v2.627h-10.331Zm22.967-6.625h-6.536v6.625h-2.965v-15.676h2.965v6.423h6.536v-6.423h2.964v15.676h-2.964v-6.625Zm6.642-9.051h2.875v8.31l-.292 3.256h.067l1.55-2.942 5.614-8.624h2.651v15.676h-2.875v-8.31l.292-3.256h-.068l-1.549 2.92-5.615 8.646h-2.65v-15.676Zm16.142 15.676v-15.676h7.052c.719 0 1.363.12 1.932.359a3.914 3.914 0 0 1 1.482.988c.404.42.711.929.921 1.528.21.599.314 1.257.314 1.976 0 .734-.104 1.4-.314 1.999a4.397 4.397 0 0 1-.921 1.527 4.281 4.281 0 0 1-1.482.988c-.569.225-1.213.337-1.932.337h-4.087v5.974h-2.965Zm2.965-8.534h3.818c.569 0 1.018-.15 1.347-.449.33-.315.495-.756.495-1.325v-1.034c0-.569-.165-1.003-.495-1.302-.329-.3-.778-.449-1.347-.449h-3.818v4.559Zm17.577 8.804c-1.033 0-1.969-.172-2.807-.517a5.683 5.683 0 0 1-2.157-1.549c-.583-.689-1.04-1.535-1.37-2.538-.329-1.004-.494-2.171-.494-3.504 0-1.318.165-2.478.494-3.481.33-1.018.787-1.872 1.37-2.56a5.675 5.675 0 0 1 2.157-1.55c.838-.344 1.774-.517 2.807-.517s1.969.173 2.807.517a5.672 5.672 0 0 1 2.156 1.55c.599.688 1.056 1.542 1.37 2.56.33 1.003.494 2.163.494 3.481 0 1.333-.164 2.5-.494 3.504-.314 1.003-.771 1.849-1.37 2.538a5.68 5.68 0 0 1-2.156 1.549c-.838.345-1.774.517-2.807.517Zm0-2.628c1.123 0 2.014-.374 2.673-1.123.673-.749 1.01-1.797 1.01-3.144V317c0-1.347-.337-2.395-1.01-3.144-.659-.749-1.55-1.123-2.673-1.123s-2.021.374-2.695 1.123c-.659.749-.988 1.797-.988 3.144v2.426c0 1.347.329 2.395.988 3.144.674.749 1.572 1.123 2.695 1.123Zm9.835-13.318h7.254c.644 0 1.221.097 1.73.292.524.194.965.464 1.325.808.359.345.629.771.808 1.281.195.494.292 1.04.292 1.639s-.082 1.108-.247 1.527c-.15.404-.359.741-.629 1.011a2.442 2.442 0 0 1-.898.606c-.329.135-.674.21-1.033.225v.135c.344 0 .711.067 1.1.202.405.135.771.352 1.101.651.344.285.629.659.853 1.123.225.449.337 1.011.337 1.684 0 .629-.105 1.221-.314 1.775a4.327 4.327 0 0 1-.831 1.415c-.36.404-.786.726-1.28.965a3.858 3.858 0 0 1-1.617.337h-7.951v-15.676Zm2.965 13.161h4.132c.569 0 1.011-.142 1.325-.427.315-.299.472-.726.472-1.28v-.764c0-.554-.157-.98-.472-1.28-.314-.299-.756-.449-1.325-.449h-4.132v4.2Zm0-6.626h3.66c.539 0 .959-.142 1.258-.426.3-.3.449-.711.449-1.236v-.696c0-.524-.149-.928-.449-1.213-.299-.299-.719-.449-1.258-.449h-3.66v4.02Zm11.927-6.535h2.965v6.423h2.493l2.56-4.626c.345-.629.719-1.086 1.123-1.37.404-.285.914-.427 1.527-.427h1.281v2.628h-1.393l-1.954 3.526c-.239.419-.479.733-.719.943a2.316 2.316 0 0 1-.831.449v.135c.375.075.689.224.944.449.269.21.531.539.786.988l2.156 3.931h1.392v2.627h-1.662c-.569 0-1.04-.127-1.415-.382-.374-.269-.748-.741-1.122-1.414l-2.673-4.874h-2.493v6.67h-2.965v-15.676Zm24.77 15.676-1.257-3.997h-5.57l-1.235 3.997h-3.01l5.255-15.676h3.684l5.21 15.676h-3.077Zm-3.997-12.981h-.113l-1.998 6.446h4.132l-2.021-6.446Z"/><path stroke="#595959" stroke-width="1.773" d="M764.293 293.91a5.023 5.023 0 0 1 5.024-5.023h208.102a5.023 5.023 0 0 1 5.024 5.023v47.283a5.023 5.023 0 0 1-5.024 5.023H769.317a5.023 5.023 0 0 1-5.024-5.023V293.91Z"/><path fill="#EEE" d="M360.603 200.195h12.128v15.677h-2.965v-13.049h-6.198v13.049h-2.965v-15.677Zm21.967 15.946c-1.033 0-1.969-.172-2.807-.516a5.682 5.682 0 0 1-2.156-1.55c-.584-.689-1.041-1.535-1.37-2.538-.33-1.003-.494-2.171-.494-3.504 0-1.317.164-2.478.494-3.481.329-1.018.786-1.871 1.37-2.56a5.682 5.682 0 0 1 2.156-1.55c.838-.344 1.774-.516 2.807-.516s1.969.172 2.808.516a5.69 5.69 0 0 1 2.156 1.55c.599.689 1.055 1.542 1.37 2.56.329 1.003.494 2.164.494 3.481 0 1.333-.165 2.501-.494 3.504-.315 1.003-.771 1.849-1.37 2.538a5.69 5.69 0 0 1-2.156 1.55c-.839.344-1.775.516-2.808.516Zm0-2.628c1.123 0 2.014-.374 2.673-1.123.674-.748 1.01-1.796 1.01-3.144v-2.425c0-1.348-.336-2.396-1.01-3.145-.659-.748-1.55-1.123-2.673-1.123s-2.021.375-2.695 1.123c-.659.749-.988 1.797-.988 3.145v2.425c0 1.348.329 2.396.988 3.144.674.749 1.572 1.123 2.695 1.123Zm7.716-.269h1.685c.284-.315.539-.696.763-1.146.24-.449.442-.995.607-1.639.165-.659.292-1.43.382-2.313.104-.884.157-1.909.157-3.077v-4.874h10.713v13.049h2.425v5.996h-2.785v-3.368h-11.162v3.368h-2.785v-5.996Zm11.342 0v-10.421h-4.873v2.628c0 1.078-.038 2.028-.113 2.852-.06.808-.149 1.52-.269 2.133a8.998 8.998 0 0 1-.449 1.595c-.165.434-.36.809-.584 1.123v.09h6.288Zm7.885-13.049h10.286v2.628h-7.322v3.436h4.2c.719 0 1.363.12 1.932.359a3.949 3.949 0 0 1 1.46.989c.404.419.711.928.92 1.527.21.584.315 1.235.315 1.954 0 .704-.105 1.355-.315 1.954a4.15 4.15 0 0 1-.92 1.504c-.405.42-.891.749-1.46.989-.569.224-1.213.337-1.932.337h-7.164v-15.677Zm6.872 13.094c.569 0 1.018-.15 1.348-.449.329-.3.494-.757.494-1.37v-.809c0-.599-.165-1.048-.494-1.347-.33-.315-.779-.472-1.348-.472h-3.908v4.447h3.908Zm13.911 2.852c-1.033 0-1.969-.172-2.808-.516a5.69 5.69 0 0 1-2.156-1.55c-.584-.689-1.04-1.535-1.37-2.538-.329-1.003-.494-2.171-.494-3.504 0-1.317.165-2.478.494-3.481.33-1.018.786-1.871 1.37-2.56a5.69 5.69 0 0 1 2.156-1.55c.839-.344 1.775-.516 2.808-.516s1.969.172 2.807.516a5.682 5.682 0 0 1 2.156 1.55c.599.689 1.056 1.542 1.37 2.56.33 1.003.494 2.164.494 3.481 0 1.333-.164 2.501-.494 3.504-.314 1.003-.771 1.849-1.37 2.538a5.682 5.682 0 0 1-2.156 1.55c-.838.344-1.774.516-2.807.516Zm0-2.628c1.123 0 2.013-.374 2.672-1.123.674-.748 1.011-1.796 1.011-3.144v-2.425c0-1.348-.337-2.396-1.011-3.145-.659-.748-1.549-1.123-2.672-1.123-1.123 0-2.022.375-2.695 1.123-.659.749-.989 1.797-.989 3.145v2.425c0 1.348.33 2.396.989 3.144.673.749 1.572 1.123 2.695 1.123Zm9.835 2.359v-15.677h7.052c.719 0 1.362.12 1.931.36a3.902 3.902 0 0 1 1.483.988c.404.419.711.928.921 1.527.209.599.314 1.258.314 1.976 0 .734-.105 1.4-.314 1.999a4.397 4.397 0 0 1-.921 1.527c-.405.42-.899.749-1.483.989-.569.224-1.212.336-1.931.336h-4.088v5.975h-2.964Zm2.964-8.535h3.818c.569 0 1.019-.15 1.348-.449.329-.314.494-.756.494-1.325v-1.033c0-.569-.165-1.003-.494-1.303-.329-.299-.779-.449-1.348-.449h-3.818v4.559Zm11.424-7.142h2.964v6.423h2.493l2.56-4.626c.345-.629.719-1.086 1.123-1.37.405-.285.914-.427 1.528-.427h1.28v2.628h-1.393l-1.954 3.526c-.239.419-.479.734-.718.943a2.317 2.317 0 0 1-.831.449v.135c.374.075.689.225.943.449.27.21.532.539.786.989l2.156 3.93h1.393v2.628h-1.662c-.569 0-1.041-.128-1.415-.382-.375-.27-.749-.741-1.123-1.415l-2.673-4.874h-2.493v6.671h-2.964v-15.677Zm15.067 0h2.875v8.31l-.292 3.257h.068l1.549-2.943 5.615-8.624h2.65v15.677h-2.875v-8.31l.292-3.257h-.067l-1.55 2.92-5.614 8.647h-2.651v-15.677Z"/><path stroke="#595959" stroke-width="1.773" d="M323.75 183.731a5.024 5.024 0 0 1 5.024-5.024h185.102a5.024 5.024 0 0 1 5.024 5.024v47.282a5.024 5.024 0 0 1-5.024 5.024H328.774a5.024 5.024 0 0 1-5.024-5.024v-47.282Z"/><path fill="#CBFB45" d="M530.947 183.84a3.901 3.901 0 0 1 3.901-3.901h123.103a3.9 3.9 0 0 1 3.9 3.901v47.282a3.9 3.9 0 0 1-3.9 3.901H534.848a3.9 3.9 0 0 1-3.901-3.901V183.84Z"/><path fill="#181818" d="m573.812 203.179-2.56 12.802h-3.256l2.56-12.802h-4.133l.584-2.874h11.522l-.584 2.874h-4.133Zm3.107 12.802 3.145-15.676h10.084l-.584 2.874h-6.805l-.697 3.437h6.019l-.583 2.874h-6.019l-.719 3.616h7.052l-.584 2.875h-10.309Zm15.343-15.676h3.256l-1.28 6.311h2.246l3.324-4.717c.404-.569.808-.973 1.213-1.213.419-.254.973-.381 1.662-.381h1.437l-.584 2.897h-1.19l-2.224 3.166c-.344.48-.673.824-.988 1.034a2.892 2.892 0 0 1-1.123.426l-.022.135c.299.12.546.292.741.517.209.224.382.546.516.965l1.168 3.639h1.325l-.584 2.897h-1.145c-.389 0-.719-.03-.988-.09a1.963 1.963 0 0 1-.719-.314 2.2 2.2 0 0 1-.516-.584 6.153 6.153 0 0 1-.382-.921l-1.483-4.582h-2.245l-1.303 6.491h-3.257l3.145-15.676Zm16.726 15.945c-.839 0-1.602-.134-2.291-.404a4.85 4.85 0 0 1-1.752-1.19c-.494-.539-.876-1.205-1.145-1.999-.27-.794-.404-1.722-.404-2.785 0-1.377.202-2.665.606-3.863.419-1.198.988-2.238 1.707-3.122a8.081 8.081 0 0 1 2.538-2.088 6.863 6.863 0 0 1 3.189-.764c1.407 0 2.545.337 3.414 1.011.883.658 1.512 1.594 1.886 2.807l-2.897 1.213c-.09-.3-.202-.577-.337-.831a2.137 2.137 0 0 0-.516-.674 1.93 1.93 0 0 0-.742-.449c-.284-.12-.636-.18-1.055-.18-1.048 0-1.902.36-2.56 1.078-.644.719-1.086 1.67-1.326 2.853l-.494 2.47a5.989 5.989 0 0 0-.112 1.123c0 1.932.861 2.897 2.583 2.897.883 0 1.587-.217 2.111-.651.539-.434.981-.996 1.325-1.684l2.718 1.235c-.704 1.362-1.617 2.373-2.74 3.032-1.108.644-2.344.965-3.706.965Zm15.985-13.071-2.56 12.802h-3.256l2.56-12.802h-4.133l.584-2.874h11.522l-.584 2.874h-4.133Z"/><path stroke="#CBFB45" stroke-width="4.019" d="M530.947 183.84a3.901 3.901 0 0 1 3.901-3.901h123.103a3.9 3.9 0 0 1 3.9 3.901v47.282a3.9 3.9 0 0 1-3.9 3.901H534.848a3.9 3.9 0 0 1-3.901-3.901V183.84Z"/><rect width="365.482" height="82.797" x="309.591" y="166.591" stroke="#9747FF" stroke-dasharray="11.82 5.91" stroke-width="1.182" rx="5.319"/><path stroke="#595959" stroke-width="1.773" d="M368.887 390.91a5.023 5.023 0 0 1 5.023-5.023h236.411a5.023 5.023 0 0 1 5.024 5.023v47.283a5.023 5.023 0 0 1-5.024 5.023H373.91a5.023 5.023 0 0 1-5.023-5.023V390.91Z"/><path fill="#EEE" d="m392.544 409.003 1.274 1.249-2.262 2.236-1.301 1.092.026.078 2.523-.156h12.82v1.769h-12.82l-2.523-.156-.026.078 1.301 1.092 2.262 2.236-1.274 1.249-5.383-5.383 5.383-5.384Zm32.887 6.242h-9.18v8.217h-2.184v-18.151h2.184v8.009h9.18v-8.009h2.185v18.151h-2.185v-8.217Zm15.786 8.217c-.78 0-1.344-.208-1.69-.624-.33-.416-.538-.936-.624-1.56h-.13c-.295.832-.781 1.456-1.457 1.872-.676.416-1.482.624-2.418.624-1.422 0-2.531-.364-3.329-1.092-.78-.728-1.17-1.716-1.17-2.964 0-1.266.459-2.237 1.378-2.913.936-.676 2.384-1.014 4.343-1.014h2.653v-1.326c0-.954-.26-1.682-.781-2.185-.52-.503-1.317-.754-2.392-.754-.815 0-1.5.182-2.054.546a4.56 4.56 0 0 0-1.353 1.456l-1.248-1.17c.364-.728.945-1.343 1.742-1.846.798-.52 1.803-.78 3.017-.78 1.63 0 2.895.398 3.797 1.196.901.797 1.352 1.907 1.352 3.329v7.385h1.534v1.82h-1.17Zm-5.981-1.456c.52 0 .997-.061 1.43-.182a3.499 3.499 0 0 0 1.118-.52c.312-.225.555-.485.729-.78a1.87 1.87 0 0 0 .26-.962v-2.211h-2.757c-1.196 0-2.072.174-2.626.52-.538.347-.807.85-.807 1.509v.546c0 .658.234 1.17.702 1.534.486.364 1.136.546 1.951.546Zm13.137 1.768c-1.369 0-2.462-.234-3.276-.702-.815-.468-1.483-1.135-2.003-2.002l1.56-1.248a4.014 4.014 0 0 0 1.431 1.56c.624.364 1.387.546 2.288.546 1.092 0 1.899-.199 2.419-.598.537-.399.806-.91.806-1.534v-.312c0-.677-.234-1.188-.702-1.535-.451-.364-1.093-.546-1.925-.546h-2.86v-1.742h2.6c.832 0 1.474-.165 1.925-.494.45-.33.676-.798.676-1.405v-.312c0-.572-.234-1.022-.702-1.352-.451-.347-1.214-.52-2.289-.52-.884 0-1.612.182-2.184.546a3.913 3.913 0 0 0-1.379 1.43l-1.378-1.17c.416-.78 1.023-1.413 1.821-1.898.814-.503 1.889-.754 3.224-.754 1.751 0 3.043.32 3.875.962.832.641 1.248 1.525 1.248 2.652 0 .833-.225 1.491-.676 1.977-.433.485-1.066.823-1.898 1.014v.104c.953.139 1.664.485 2.132 1.04.486.538.728 1.231.728 2.081 0 1.3-.494 2.331-1.482 3.094-.971.746-2.297 1.118-3.979 1.118Zm18.076-.312c-.78 0-1.343-.208-1.69-.624-.329-.416-.538-.936-.624-1.56h-.13c-.295.832-.78 1.456-1.457 1.872-.676.416-1.482.624-2.418.624-1.422 0-2.531-.364-3.329-1.092-.78-.728-1.17-1.716-1.17-2.964 0-1.266.46-2.237 1.378-2.913.937-.676 2.384-1.014 4.343-1.014h2.653v-1.326c0-.954-.26-1.682-.78-2.185-.52-.503-1.318-.754-2.393-.754-.815 0-1.499.182-2.054.546a4.57 4.57 0 0 0-1.353 1.456l-1.248-1.17c.364-.728.945-1.343 1.743-1.846.797-.52 1.803-.78 3.016-.78 1.63 0 2.895.398 3.797 1.196.901.797 1.352 1.907 1.352 3.329v7.385h1.535v1.82h-1.171Zm-5.981-1.456c.52 0 .997-.061 1.43-.182a3.504 3.504 0 0 0 1.119-.52c.312-.225.554-.485.728-.78a1.87 1.87 0 0 0 .26-.962v-2.211h-2.757c-1.196 0-2.072.174-2.626.52-.538.347-.806.85-.806 1.509v.546c0 .658.234 1.17.702 1.534.485.364 1.135.546 1.95.546Zm7.948-.364h1.534c.537-.867.971-1.95 1.3-3.251.33-1.3.494-2.791.494-4.473v-3.874h9.076v11.598h2.237v5.461h-1.899v-3.641h-10.844v3.641h-1.898v-5.461Zm10.324 0v-9.778h-5.019v2.159c0 1.785-.156 3.311-.468 4.576-.295 1.249-.65 2.263-1.067 3.043h6.554Zm11.78-11.598h6.762c1.092 0 1.95.312 2.574.936.624.607.936 1.43.936 2.47 0 1.682-.875 2.627-2.626 2.835v.104c1.04.087 1.812.416 2.314.988.52.555.781 1.248.781 2.081 0 .537-.087 1.048-.261 1.534-.156.485-.39.91-.702 1.274a3.61 3.61 0 0 1-1.144.884c-.451.208-.962.312-1.534.312h-7.1v-13.418Zm6.476 11.702c.624 0 1.118-.165 1.482-.494.364-.329.546-.798.546-1.404v-.598c0-.607-.182-1.075-.546-1.405-.364-.329-.858-.494-1.482-.494h-4.395v4.395h4.395Zm-.26-6.085c.572 0 1.014-.139 1.326-.416.329-.295.494-.711.494-1.249v-.572c0-.537-.165-.944-.494-1.222-.312-.295-.754-.442-1.326-.442h-4.135v3.901h4.135Zm12.871-5.617h2.08v5.617h2.679l2.6-4.109c.191-.312.373-.563.546-.754.174-.208.347-.364.52-.468a1.61 1.61 0 0 1 .547-.208 2.47 2.47 0 0 1 .65-.078h1.222v1.82h-1.612l-2.107 3.329c-.138.225-.26.407-.364.546-.104.139-.208.26-.312.364a2.306 2.306 0 0 1-.338.234 4.209 4.209 0 0 1-.442.156v.104c.364.052.676.173.936.364.277.173.564.52.858 1.04l2.055 3.641h1.534v1.82h-1.508c-.451 0-.867-.112-1.249-.338-.364-.242-.719-.676-1.066-1.3l-2.47-4.395h-2.679v6.033h-2.08v-13.418Zm23.015 13.418c-.78 0-1.343-.208-1.69-.624-.329-.416-.537-.936-.624-1.56h-.13c-.295.832-.78 1.456-1.456 1.872-.676.416-1.483.624-2.419.624-1.421 0-2.531-.364-3.329-1.092-.78-.728-1.17-1.716-1.17-2.964 0-1.266.46-2.237 1.379-2.913.936-.676 2.383-1.014 4.342-1.014h2.653v-1.326c0-.954-.26-1.682-.78-2.185-.52-.503-1.318-.754-2.393-.754-.815 0-1.499.182-2.054.546-.538.364-.988.85-1.352 1.456l-1.249-1.17c.364-.728.945-1.343 1.743-1.846.797-.52 1.803-.78 3.016-.78 1.63 0 2.896.398 3.797 1.196.902.797 1.352 1.907 1.352 3.329v7.385h1.535v1.82h-1.171Zm-5.981-1.456c.52 0 .997-.061 1.431-.182a3.509 3.509 0 0 0 1.118-.52c.312-.225.555-.485.728-.78a1.87 1.87 0 0 0 .26-.962v-2.211h-2.757c-1.196 0-2.071.174-2.626.52-.538.347-.806.85-.806 1.509v.546c0 .658.234 1.17.702 1.534.485.364 1.135.546 1.95.546Zm11.745-10.142h-4.577v-1.82h11.234v1.82h-4.577v11.598h-2.08v-11.598Zm18.021 11.598c-.78 0-1.344-.208-1.69-.624-.33-.416-.538-.936-.624-1.56h-.13c-.295.832-.781 1.456-1.457 1.872-.676.416-1.482.624-2.418.624-1.422 0-2.531-.364-3.329-1.092-.78-.728-1.17-1.716-1.17-2.964 0-1.266.459-2.237 1.378-2.913.936-.676 2.384-1.014 4.343-1.014h2.653v-1.326c0-.954-.26-1.682-.781-2.185-.52-.503-1.317-.754-2.392-.754-.815 0-1.5.182-2.054.546a4.56 4.56 0 0 0-1.353 1.456l-1.248-1.17c.364-.728.945-1.343 1.742-1.846.798-.52 1.803-.78 3.017-.78 1.63 0 2.895.398 3.797 1.196.901.797 1.352 1.907 1.352 3.329v7.385h1.534v1.82h-1.17Zm-5.981-1.456c.52 0 .997-.061 1.43-.182a3.499 3.499 0 0 0 1.118-.52c.312-.225.555-.485.729-.78a1.87 1.87 0 0 0 .26-.962v-2.211h-2.757c-1.196 0-2.072.174-2.627.52-.537.347-.806.85-.806 1.509v.546c0 .658.234 1.17.702 1.534.486.364 1.136.546 1.951.546Zm7.592-.364h1.768a5.17 5.17 0 0 0 .598-1.118c.174-.434.321-.954.443-1.561.121-.606.216-1.326.286-2.158.069-.832.104-1.812.104-2.939v-3.822h9.075v13.418h-2.08v-11.598h-5.019v2.054c0 1.301-.052 2.436-.156 3.407-.087.971-.217 1.803-.39 2.497-.156.693-.347 1.265-.572 1.716-.226.433-.468.78-.728 1.04-.33.33-.694.564-1.093.702-.398.122-.875.182-1.43.182h-.806v-1.82Zm20.997 2.132c-.901 0-1.725-.164-2.47-.494a5.516 5.516 0 0 1-1.925-1.404 7.005 7.005 0 0 1-1.222-2.21c-.295-.867-.442-1.838-.442-2.913 0-1.057.147-2.02.442-2.887.295-.866.702-1.603 1.222-2.21a5.38 5.38 0 0 1 1.925-1.43c.745-.33 1.569-.494 2.47-.494.902 0 1.717.164 2.445.494a5.376 5.376 0 0 1 1.924 1.43c.538.607.954 1.344 1.248 2.21.295.867.443 1.83.443 2.887 0 1.075-.148 2.046-.443 2.913a6.703 6.703 0 0 1-1.248 2.21 5.512 5.512 0 0 1-1.924 1.404c-.728.33-1.543.494-2.445.494Zm0-1.846c1.127 0 2.046-.347 2.757-1.04.711-.694 1.066-1.751 1.066-3.173v-1.924c0-1.422-.355-2.479-1.066-3.173-.711-.693-1.63-1.04-2.757-1.04-1.127 0-2.045.347-2.756 1.04-.711.694-1.066 1.751-1.066 3.173v1.924c0 1.422.355 2.479 1.066 3.173.711.693 1.629 1.04 2.756 1.04Zm8.701-11.884h8.478v1.82h-6.398v11.598h-2.08v-13.418Z"/><path stroke="#595959" stroke-width="1.774" d="m332.642 36.063 77.655 153.258"/><path fill="#DADADA" d="M181.703 23.32c-1.51 0-2.799-.285-3.865-.853a8.355 8.355 0 0 1-2.719-2.399l1.653-1.386c.657.87 1.386 1.537 2.186 2 .799.443 1.741.666 2.825.666 1.333 0 2.345-.32 3.038-.96.711-.64 1.067-1.493 1.067-2.559 0-.888-.267-1.572-.8-2.052s-1.413-.862-2.639-1.146l-1.519-.347c-1.706-.39-3.012-.977-3.918-1.759-.889-.8-1.333-1.919-1.333-3.358 0-.818.151-1.546.453-2.186a4.45 4.45 0 0 1 1.253-1.6 5.694 5.694 0 0 1 1.946-.959 8.624 8.624 0 0 1 2.505-.346c1.404 0 2.603.258 3.598.773 1.013.515 1.866 1.27 2.559 2.265l-1.679 1.226a5.78 5.78 0 0 0-1.866-1.679c-.728-.408-1.635-.613-2.718-.613-1.191 0-2.133.258-2.826.773-.675.498-1.013 1.253-1.013 2.266 0 .888.285 1.563.853 2.025.587.445 1.466.8 2.639 1.067l1.519.346c1.831.409 3.154 1.03 3.972 1.866.817.835 1.226 1.946 1.226 3.332 0 .853-.151 1.625-.453 2.318a4.632 4.632 0 0 1-1.253 1.76c-.551.48-1.226.853-2.026 1.119-.782.267-1.67.4-2.665.4Zm15.221 0c-.942 0-1.795-.169-2.559-.507a5.733 5.733 0 0 1-1.946-1.439c-.533-.64-.95-1.395-1.253-2.265-.284-.889-.426-1.884-.426-2.986 0-1.084.142-2.07.426-2.958.303-.889.72-1.644 1.253-2.266a5.584 5.584 0 0 1 1.946-1.466c.764-.337 1.617-.506 2.559-.506.924 0 1.75.169 2.478.506a5.408 5.408 0 0 1 1.866 1.413c.516.586.906 1.288 1.173 2.105.284.818.426 1.715.426 2.693v1.012h-9.888v.64c0 .587.089 1.137.266 1.653.196.497.462.932.8 1.306.355.373.782.666 1.279.88a4.52 4.52 0 0 0 1.733.32c.871 0 1.626-.205 2.265-.614.658-.409 1.164-.995 1.52-1.76l1.519 1.094c-.444.941-1.137 1.706-2.079 2.292-.942.569-2.061.853-3.358.853Zm0-12.607c-.587 0-1.12.106-1.6.32a3.57 3.57 0 0 0-1.252.852 4.167 4.167 0 0 0-.8 1.333 4.493 4.493 0 0 0-.293 1.653v.186h7.596v-.293c0-1.226-.337-2.203-1.013-2.932-.657-.746-1.537-1.12-2.638-1.12ZM206.381 23V9.247h2.132v2.239h.107a7.47 7.47 0 0 1 .533-.987c.213-.32.462-.595.746-.826a3.396 3.396 0 0 1 1.04-.533c.391-.142.853-.213 1.386-.213.906 0 1.741.222 2.505.666.764.427 1.333 1.137 1.706 2.133h.054c.248-.747.71-1.395 1.386-1.946.693-.569 1.625-.853 2.798-.853 1.404 0 2.497.462 3.279 1.386.799.906 1.199 2.194 1.199 3.865V23h-2.132v-8.45c0-1.225-.24-2.15-.72-2.771-.48-.622-1.244-.933-2.292-.933a4.62 4.62 0 0 0-1.226.16 3.328 3.328 0 0 0-1.013.48 2.317 2.317 0 0 0-.72.826c-.177.32-.266.702-.266 1.146V23h-2.133v-8.45c0-1.225-.239-2.15-.719-2.771-.48-.622-1.226-.933-2.239-.933a4.62 4.62 0 0 0-1.226.16 3.285 3.285 0 0 0-1.04.48 2.567 2.567 0 0 0-.746.826c-.178.32-.267.702-.267 1.146V23h-2.132Zm24.336-16.978c-.462 0-.799-.107-1.013-.32-.195-.231-.293-.524-.293-.88v-.346c0-.356.098-.64.293-.853.214-.231.551-.347 1.013-.347.462 0 .791.116.986.347.214.213.32.497.32.853v.346c0 .356-.106.649-.32.88-.195.213-.524.32-.986.32Zm-1.066 3.225h2.132V23h-2.132V9.247Zm6.664-5.97h2.132v8.209h.106c.356-.871.871-1.51 1.546-1.92.693-.426 1.52-.64 2.479-.64.853 0 1.626.17 2.319.507a4.917 4.917 0 0 1 1.759 1.44c.498.622.871 1.377 1.12 2.265.266.889.399 1.884.399 2.985 0 1.102-.133 2.097-.399 2.986-.249.888-.622 1.643-1.12 2.265a4.918 4.918 0 0 1-1.759 1.44c-.693.337-1.466.506-2.319.506-1.866 0-3.207-.853-4.025-2.559h-.106V23h-2.132V3.276Zm5.677 18.124c1.208 0 2.159-.373 2.852-1.12.693-.764 1.039-1.759 1.039-2.985v-2.345c0-1.226-.346-2.213-1.039-2.959-.693-.764-1.644-1.146-2.852-1.146-.48 0-.942.071-1.386.213-.427.125-.8.302-1.12.533-.32.231-.577.515-.773.853-.177.32-.266.666-.266 1.04v5.117c0 .444.089.844.266 1.2.196.337.453.63.773.88.32.23.693.408 1.12.532a5.09 5.09 0 0 0 1.386.187Zm14.981 1.919c-.924 0-1.768-.169-2.532-.507a5.66 5.66 0 0 1-1.972-1.439 7.172 7.172 0 0 1-1.253-2.265c-.302-.889-.453-1.884-.453-2.986 0-1.084.151-2.07.453-2.958.302-.889.72-1.644 1.253-2.266a5.516 5.516 0 0 1 1.972-1.466c.764-.337 1.608-.506 2.532-.506.924 0 1.759.169 2.506.506a5.516 5.516 0 0 1 1.972 1.466c.551.622.977 1.377 1.279 2.266.303.888.454 1.874.454 2.958 0 1.102-.151 2.097-.454 2.986a6.888 6.888 0 0 1-1.279 2.265 5.66 5.66 0 0 1-1.972 1.44c-.747.337-1.582.506-2.506.506Zm0-1.893c1.155 0 2.097-.355 2.826-1.066.728-.71 1.092-1.794 1.092-3.252v-1.972c0-1.457-.364-2.54-1.092-3.252-.729-.71-1.671-1.066-2.826-1.066s-2.097.356-2.825 1.066c-.729.711-1.093 1.795-1.093 3.252v1.973c0 1.457.364 2.54 1.093 3.251.728.711 1.67 1.066 2.825 1.066ZM268.956 23c-.746 0-1.315-.204-1.706-.613-.373-.427-.56-.96-.56-1.6V3.278h2.133v17.857h2.025V23h-1.892Zm13.792-2.239h-.106c-.836 1.706-2.177 2.559-4.025 2.559-.853 0-1.626-.169-2.319-.507a5.166 5.166 0 0 1-1.786-1.439c-.48-.622-.853-1.377-1.119-2.265-.249-.889-.373-1.884-.373-2.986 0-1.101.124-2.096.373-2.985.266-.888.639-1.643 1.119-2.265a5.165 5.165 0 0 1 1.786-1.44c.693-.337 1.466-.506 2.319-.506.959 0 1.777.213 2.452.64.693.408 1.217 1.048 1.573 1.919h.106v-8.21h2.132V23h-2.132v-2.239Zm-3.545.64c.48 0 .933-.062 1.36-.187a3.597 3.597 0 0 0 1.146-.533c.32-.249.568-.542.746-.88a2.45 2.45 0 0 0 .293-1.199v-5.117c0-.373-.098-.72-.293-1.04a2.45 2.45 0 0 0-.746-.853 3.597 3.597 0 0 0-1.146-.533 4.278 4.278 0 0 0-1.36-.213c-1.208 0-2.159.382-2.852 1.146-.693.746-1.039 1.732-1.039 2.959v2.345c0 1.226.346 2.221 1.039 2.985.693.747 1.644 1.12 2.852 1.12Zm11.57-1.52c.569 0 .977.152 1.226.454.267.284.4.657.4 1.12v.372c0 .729-.213 1.528-.64 2.4a7.05 7.05 0 0 1-1.786 2.318h-1.785c.533-.569.959-1.11 1.279-1.626a4.898 4.898 0 0 0 .72-1.68c-.356-.088-.622-.257-.8-.506-.16-.248-.24-.55-.24-.906v-.373c0-.462.125-.835.373-1.12.267-.301.684-.453 1.253-.453ZM303.055 23v-1.972h5.197V6.048h-.186l-4.691 4.371-1.306-1.412L307 4.396h3.491v16.632h4.798V23h-12.234Zm27.843-11.78a12.3 12.3 0 0 1-.614 3.917 14.743 14.743 0 0 1-1.599 3.332 15.9 15.9 0 0 1-2.132 2.665c-.782.764-1.546 1.386-2.292 1.866h-2.879a36.843 36.843 0 0 0 2.666-2.132 16.7 16.7 0 0 0 2.052-2.16 13.679 13.679 0 0 0 1.492-2.425c.409-.87.738-1.848.987-2.932l-.134-.053a6.173 6.173 0 0 1-1.732 1.92c-.693.497-1.608.745-2.745.745a5.97 5.97 0 0 1-2.213-.4 4.844 4.844 0 0 1-1.732-1.146 5.596 5.596 0 0 1-1.146-1.785c-.267-.711-.4-1.51-.4-2.4 0-.905.142-1.732.426-2.478a5.649 5.649 0 0 1 1.253-1.946 5.788 5.788 0 0 1 1.946-1.279c.764-.302 1.617-.453 2.559-.453.959 0 1.821.169 2.585.506.782.32 1.439.791 1.972 1.413.551.604.969 1.35 1.253 2.239.284.888.427 1.883.427 2.985Zm-6.211 2.851c1.226 0 2.177-.338 2.852-1.013.693-.675 1.04-1.643 1.04-2.905V9.94c0-1.262-.347-2.23-1.04-2.906-.675-.675-1.626-1.012-2.852-1.012s-2.185.337-2.878 1.012c-.676.676-1.013 1.644-1.013 2.906v.213c0 1.261.337 2.23 1.013 2.905.693.675 1.652 1.013 2.878 1.013Z"/><path stroke="#595959" stroke-width="1.774" d="M675.92 36.063 598.266 189.32"/><path fill="#DADADA" d="M678.744 4.396h7.65c1.546 0 2.754.435 3.625 1.306.888.87 1.333 2.034 1.333 3.491 0 .693-.098 1.28-.294 1.76-.195.48-.444.88-.746 1.199a3.323 3.323 0 0 1-.986.693 5.02 5.02 0 0 1-.986.293v.16a3.63 3.63 0 0 1 1.119.267c.427.16.826.417 1.2.773.373.337.684.781.933 1.332.266.533.399 1.182.399 1.946a5.97 5.97 0 0 1-.373 2.132 5.067 5.067 0 0 1-.986 1.706 4.82 4.82 0 0 1-1.519 1.146c-.587.267-1.226.4-1.919.4h-8.45V4.396Zm2.239 16.632h5.518c.959 0 1.714-.24 2.265-.72.551-.498.826-1.217.826-2.159v-.906c0-.942-.275-1.653-.826-2.132-.551-.498-1.306-.747-2.265-.747h-5.518v6.664Zm0-8.583h5.144c.889 0 1.582-.222 2.079-.666.498-.444.747-1.084.747-1.92v-.906c0-.835-.249-1.474-.747-1.919-.497-.444-1.19-.666-2.079-.666h-5.144v6.077Zm20.159 10.875c-.924 0-1.768-.169-2.532-.507a5.65 5.65 0 0 1-1.972-1.439 7.172 7.172 0 0 1-1.253-2.265c-.302-.889-.453-1.884-.453-2.986 0-1.084.151-2.07.453-2.958.302-.889.72-1.644 1.253-2.266a5.507 5.507 0 0 1 1.972-1.466c.764-.337 1.608-.506 2.532-.506.924 0 1.759.169 2.506.506a5.516 5.516 0 0 1 1.972 1.466c.551.622.977 1.377 1.279 2.266.302.888.453 1.874.453 2.958 0 1.102-.151 2.097-.453 2.986a6.888 6.888 0 0 1-1.279 2.265 5.66 5.66 0 0 1-1.972 1.44c-.747.337-1.582.506-2.506.506Zm0-1.893c1.155 0 2.097-.355 2.825-1.066.729-.71 1.093-1.794 1.093-3.252v-1.972c0-1.457-.364-2.54-1.093-3.252-.728-.71-1.67-1.066-2.825-1.066-1.155 0-2.097.356-2.825 1.066-.729.711-1.093 1.795-1.093 3.252v1.973c0 1.457.364 2.54 1.093 3.251.728.711 1.67 1.066 2.825 1.066ZM713.125 23c-.747 0-1.315-.204-1.706-.613-.373-.427-.56-.96-.56-1.6V3.278h2.133v17.857h2.025V23h-1.892Zm13.792-2.239h-.107c-.835 1.706-2.176 2.559-4.024 2.559-.853 0-1.626-.169-2.319-.507a5.166 5.166 0 0 1-1.786-1.439c-.48-.622-.853-1.377-1.119-2.265-.249-.889-.374-1.884-.374-2.986 0-1.101.125-2.096.374-2.985.266-.888.639-1.643 1.119-2.265a5.165 5.165 0 0 1 1.786-1.44c.693-.337 1.466-.506 2.319-.506.959 0 1.777.213 2.452.64.693.408 1.217 1.048 1.572 1.919h.107v-8.21h2.132V23h-2.132v-2.239Zm-3.545.64c.48 0 .933-.062 1.359-.187a3.593 3.593 0 0 0 1.147-.533c.319-.249.568-.542.746-.88a2.45 2.45 0 0 0 .293-1.199v-5.117c0-.373-.098-.72-.293-1.04a2.46 2.46 0 0 0-.746-.853 3.593 3.593 0 0 0-1.147-.533 4.267 4.267 0 0 0-1.359-.213c-1.208 0-2.159.382-2.852 1.146-.693.746-1.039 1.732-1.039 2.959v2.345c0 1.226.346 2.221 1.039 2.985.693.747 1.644 1.12 2.852 1.12ZM739.215 23v-1.866h2.612V6.261h-2.612V4.396h7.463V6.26h-2.612v14.873h2.612V23h-7.463Zm14.377 0c-.746 0-1.315-.204-1.706-.613-.373-.427-.56-.977-.56-1.653v-9.622h-2.265V9.247h1.279c.462 0 .773-.09.933-.267.178-.195.267-.524.267-.986V5.435h1.919v3.812h3.012v1.865h-3.012v10.022h2.798V23h-2.665Zm16.301 0c-.8 0-1.377-.213-1.732-.64-.338-.426-.551-.96-.64-1.599h-.133c-.302.853-.8 1.493-1.493 1.92-.693.426-1.519.639-2.479.639-1.457 0-2.594-.373-3.411-1.12-.8-.746-1.2-1.759-1.2-3.038 0-1.297.471-2.292 1.413-2.985.959-.693 2.443-1.04 4.451-1.04h2.719v-1.36c0-.976-.267-1.723-.8-2.238-.533-.515-1.35-.773-2.452-.773-.835 0-1.537.187-2.106.56a4.668 4.668 0 0 0-1.386 1.492l-1.279-1.2c.373-.745.968-1.376 1.786-1.892.817-.533 1.848-.8 3.091-.8 1.671 0 2.968.41 3.892 1.227.924.817 1.386 1.954 1.386 3.412v7.57h1.572V23h-1.199Zm-6.13-1.493a5.43 5.43 0 0 0 1.466-.186 3.597 3.597 0 0 0 1.146-.533c.32-.231.568-.498.746-.8.178-.302.267-.63.267-.986v-2.266h-2.826c-1.226 0-2.123.178-2.692.534-.551.355-.826.87-.826 1.545v.56c0 .675.24 1.2.72 1.573.497.373 1.164.56 1.999.56ZM776.401 23c-.746 0-1.315-.204-1.705-.613-.374-.427-.56-.96-.56-1.6V3.278h2.132v17.857h2.026V23h-1.893Zm6.063-16.978c-.462 0-.8-.107-1.013-.32-.195-.231-.293-.524-.293-.88v-.346c0-.356.098-.64.293-.853.213-.231.551-.347 1.013-.347.462 0 .791.116.986.347.213.213.32.497.32.853v.346c0 .356-.107.649-.32.88-.195.213-.524.32-.986.32Zm-1.066 3.225h2.132V23h-2.132V9.247Zm11.781 14.073c-.96 0-1.822-.169-2.586-.507a5.401 5.401 0 0 1-1.945-1.439c-.516-.622-.915-1.377-1.2-2.265-.266-.889-.4-1.884-.4-2.986 0-1.101.134-2.096.4-2.985.285-.888.684-1.643 1.2-2.265a5.4 5.4 0 0 1 1.945-1.44c.764-.337 1.626-.506 2.586-.506 1.368 0 2.461.302 3.278.906a5.325 5.325 0 0 1 1.866 2.319l-1.786.906c-.249-.71-.657-1.261-1.226-1.652-.568-.391-1.279-.587-2.132-.587-.64 0-1.2.107-1.679.32-.48.196-.88.48-1.2.853-.32.355-.56.79-.719 1.306a5.378 5.378 0 0 0-.24 1.653v2.345c0 1.208.32 2.204.959 2.985.658.764 1.617 1.146 2.879 1.146 1.723 0 2.967-.8 3.731-2.398l1.546 1.04a5.427 5.427 0 0 1-1.999 2.371c-.87.587-1.963.88-3.278.88Zm9.647-3.439c.568 0 .977.152 1.226.454.266.284.399.657.399 1.12v.372c0 .729-.213 1.528-.639 2.4a7.076 7.076 0 0 1-1.786 2.318h-1.786c.533-.569.96-1.11 1.28-1.626a4.916 4.916 0 0 0 .719-1.68c-.355-.088-.622-.257-.799-.506-.16-.248-.24-.55-.24-.906v-.373c0-.462.124-.835.373-1.12.266-.301.684-.453 1.253-.453ZM815.107 23v-1.972h5.198V6.048h-.187l-4.691 4.371-1.306-1.412 4.931-4.611h3.492v16.632h4.797V23h-12.234Zm27.843-11.78a12.3 12.3 0 0 1-.613 3.917 14.829 14.829 0 0 1-1.599 3.332 15.956 15.956 0 0 1-2.133 2.665c-.781.764-1.545 1.386-2.292 1.866h-2.878a36.814 36.814 0 0 0 2.665-2.132 16.564 16.564 0 0 0 2.052-2.16 13.684 13.684 0 0 0 1.493-2.425c.409-.87.737-1.848.986-2.932l-.133-.053a6.176 6.176 0 0 1-1.733 1.92c-.693.497-1.608.745-2.745.745a5.96 5.96 0 0 1-2.212-.4 4.848 4.848 0 0 1-1.733-1.146 5.63 5.63 0 0 1-1.146-1.785c-.266-.711-.4-1.51-.4-2.4 0-.905.143-1.732.427-2.478a5.649 5.649 0 0 1 1.253-1.946 5.784 5.784 0 0 1 1.945-1.279c.764-.302 1.617-.453 2.559-.453.96 0 1.821.169 2.585.506a5.1 5.1 0 0 1 1.973 1.413c.551.604.968 1.35 1.253 2.239.284.888.426 1.883.426 2.985Zm-6.21 2.851c1.226 0 2.176-.338 2.852-1.013.693-.675 1.039-1.643 1.039-2.905V9.94c0-1.262-.346-2.23-1.039-2.906-.676-.675-1.626-1.012-2.852-1.012s-2.186.337-2.879 1.012c-.675.676-1.013 1.644-1.013 2.906v.213c0 1.261.338 2.23 1.013 2.905.693.675 1.653 1.013 2.879 1.013Z"/><path stroke="#595959" stroke-width="1.774" d="m562 434 70.734 133.269"/><path fill="#DADADA" d="M640.018 591h-2.238v-18.604h7.409c1.635 0 2.906.453 3.812 1.359.924.906 1.386 2.212 1.386 3.918 0 1.368-.32 2.497-.96 3.385-.622.871-1.546 1.448-2.772 1.733L650.92 591h-2.532l-4.025-7.996h-4.345V591Zm5.171-9.915c.889 0 1.573-.231 2.053-.693.497-.462.746-1.12.746-1.973v-1.386c0-.852-.249-1.51-.746-1.972-.48-.462-1.164-.693-2.053-.693h-5.171v6.717h5.171Zm14.207 10.235c-.942 0-1.795-.169-2.559-.507a5.723 5.723 0 0 1-1.946-1.439c-.533-.64-.95-1.395-1.252-2.265-.285-.889-.427-1.884-.427-2.986 0-1.084.142-2.07.427-2.958.302-.889.719-1.644 1.252-2.266a5.598 5.598 0 0 1 1.946-1.466c.764-.337 1.617-.506 2.559-.506.924 0 1.75.169 2.479.506.728.338 1.35.809 1.865 1.413.516.586.907 1.288 1.173 2.106.284.817.427 1.714.427 2.692v1.012h-9.889v.64c0 .586.089 1.137.267 1.653.195.497.462.933.799 1.306.356.373.782.666 1.28.879.515.213 1.092.32 1.732.32.871 0 1.626-.204 2.266-.613.657-.409 1.163-.995 1.519-1.759l1.519 1.093c-.444.941-1.137 1.706-2.079 2.292-.942.569-2.061.853-3.358.853Zm0-12.607c-.587 0-1.12.106-1.599.319-.48.196-.898.48-1.253.853a4.18 4.18 0 0 0-.8 1.333 4.494 4.494 0 0 0-.293 1.653v.186h7.596v-.293c0-1.226-.337-2.203-1.013-2.932-.657-.746-1.537-1.119-2.638-1.119Zm21.052 13.806c0 1.422-.56 2.461-1.68 3.119-1.101.675-2.763 1.013-4.984 1.013-2.15 0-3.696-.294-4.638-.88-.941-.586-1.412-1.422-1.412-2.505 0-.747.195-1.333.586-1.76.391-.408.924-.71 1.599-.906v-.293c-.817-.391-1.226-1.031-1.226-1.919 0-.693.222-1.217.667-1.573.444-.373 1.012-.648 1.705-.826v-.107a4.524 4.524 0 0 1-1.919-1.679c-.444-.728-.666-1.572-.666-2.532 0-.693.124-1.332.373-1.919a4.247 4.247 0 0 1 1.04-1.492 4.86 4.86 0 0 1 1.626-.987c.639-.231 1.35-.346 2.132-.346.977 0 1.848.178 2.612.533v-.24c0-.533.124-.968.373-1.306.249-.355.658-.533 1.226-.533h2.053v1.866h-2.613v.879a4.3 4.3 0 0 1 1.147 1.546c.284.587.426 1.253.426 1.999 0 .693-.124 1.333-.373 1.919a4.365 4.365 0 0 1-1.066 1.52 4.765 4.765 0 0 1-1.626.959c-.64.231-1.351.347-2.132.347-.445 0-.889-.045-1.333-.134-.462.125-.88.311-1.253.56-.373.231-.56.56-.56.986 0 .409.196.684.587.826.391.143.897.214 1.519.214h2.932c1.706 0 2.941.328 3.705.986.782.64 1.173 1.528 1.173 2.665Zm-1.999.16a1.62 1.62 0 0 0-.64-1.333c-.409-.319-1.146-.479-2.212-.479h-4.585c-.853.391-1.279 1.013-1.279 1.865 0 .605.222 1.12.666 1.546.462.427 1.235.64 2.319.64h1.972c1.191 0 2.115-.186 2.772-.56.658-.373.987-.933.987-1.679Zm-4.771-7.969c.906 0 1.625-.214 2.159-.64.533-.444.799-1.119.799-2.026v-.746c0-.906-.266-1.573-.799-1.999-.534-.444-1.253-.666-2.159-.666-.907 0-1.626.222-2.159.666-.533.426-.8 1.093-.8 1.999v.746c0 .907.267 1.582.8 2.026.533.426 1.252.64 2.159.64Zm17.629 4.051h-.107c-.142.32-.32.64-.533.96a3.613 3.613 0 0 1-.746.826 3.746 3.746 0 0 1-1.093.56c-.427.142-.924.213-1.493.213-1.421 0-2.55-.453-3.385-1.359-.835-.924-1.252-2.222-1.252-3.892v-8.822h2.132v8.449c0 2.47 1.048 3.705 3.145 3.705.426 0 .835-.054 1.226-.16a3.263 3.263 0 0 0 1.066-.48c.32-.213.569-.48.746-.8.196-.337.294-.737.294-1.199v-9.515h2.132V591h-2.132v-2.239Zm8.938 2.239c-.746 0-1.315-.204-1.706-.613-.373-.426-.559-.96-.559-1.599v-17.512h2.132v17.858h2.026V591h-1.893Zm14.992 0c-.8 0-1.377-.213-1.733-.64-.337-.426-.55-.959-.639-1.599h-.134c-.302.853-.799 1.493-1.492 1.919-.693.427-1.519.64-2.479.64-1.457 0-2.594-.373-3.412-1.12-.799-.746-1.199-1.759-1.199-3.038 0-1.297.471-2.292 1.413-2.985.959-.693 2.443-1.04 4.451-1.04h2.718v-1.359c0-.977-.266-1.724-.799-2.239-.533-.515-1.351-.773-2.452-.773-.835 0-1.537.187-2.106.56a4.664 4.664 0 0 0-1.386 1.492l-1.279-1.199c.373-.746.968-1.377 1.786-1.893.817-.533 1.848-.799 3.091-.799 1.671 0 2.968.409 3.892 1.226.924.817 1.386 1.955 1.386 3.412v7.569h1.572V591h-1.199Zm-6.13-1.493c.533 0 1.021-.062 1.466-.186a3.61 3.61 0 0 0 1.146-.533c.319-.231.568-.498.746-.8.178-.302.266-.631.266-.986v-2.266h-2.825c-1.226 0-2.123.178-2.692.533-.551.356-.826.871-.826 1.546v.56c0 .675.24 1.2.72 1.573.497.373 1.163.559 1.999.559ZM719.48 591v-13.753h2.132v2.532h.133c.249-.658.693-1.244 1.333-1.759.64-.516 1.519-.773 2.639-.773h.826v2.132h-1.253c-1.155 0-2.061.222-2.718.666-.64.427-.96.969-.96 1.626V591h-2.132Zm9.012-3.118c.568 0 .977.151 1.226.453.266.284.399.657.399 1.119v.373c0 .729-.213 1.528-.639 2.399a7.077 7.077 0 0 1-1.786 2.319h-1.786c.533-.569.96-1.111 1.28-1.626a4.909 4.909 0 0 0 .719-1.679c-.355-.089-.622-.258-.799-.507-.16-.248-.24-.55-.24-.906v-.373c0-.462.124-.835.373-1.119.266-.302.684-.453 1.253-.453ZM752.634 591h-12.207v-2.292l6.077-5.597c.871-.8 1.599-1.644 2.185-2.533.587-.906.88-1.812.88-2.718v-.32c0-1.031-.284-1.866-.853-2.506-.569-.639-1.43-.959-2.585-.959-.569 0-1.066.08-1.493.24-.426.16-.8.382-1.119.666-.302.284-.56.622-.773 1.013a6.232 6.232 0 0 0-.48 1.226l-1.999-.773a7.985 7.985 0 0 1 .72-1.599 5.972 5.972 0 0 1 1.172-1.413 5.759 5.759 0 0 1 1.706-.986c.675-.249 1.466-.373 2.372-.373.907 0 1.715.133 2.426.4.711.266 1.306.639 1.786 1.119a4.77 4.77 0 0 1 1.092 1.706c.267.657.4 1.386.4 2.186 0 .728-.106 1.403-.32 2.025a7.738 7.738 0 0 1-.826 1.786 10.675 10.675 0 0 1-1.306 1.626 27.47 27.47 0 0 1-1.626 1.599l-5.011 4.505h9.782V591Zm15.982 0h-12.207v-2.292l6.077-5.597c.87-.8 1.599-1.644 2.185-2.533.587-.906.88-1.812.88-2.718v-.32c0-1.031-.284-1.866-.853-2.506-.569-.639-1.431-.959-2.586-.959-.568 0-1.066.08-1.492.24-.427.16-.8.382-1.12.666a4.037 4.037 0 0 0-.773 1.013 6.293 6.293 0 0 0-.479 1.226l-1.999-.773a7.98 7.98 0 0 1 .719-1.599 6 6 0 0 1 1.173-1.413 5.746 5.746 0 0 1 1.706-.986c.675-.249 1.466-.373 2.372-.373.906 0 1.715.133 2.426.4.71.266 1.306.639 1.785 1.119.48.48.844 1.049 1.093 1.706.267.657.4 1.386.4 2.186 0 .728-.107 1.403-.32 2.025a7.738 7.738 0 0 1-.826 1.786 10.675 10.675 0 0 1-1.306 1.626 28.095 28.095 0 0 1-1.626 1.599l-5.011 4.505h9.782V591Zm5.4-3.118c.569 0 .978.151 1.226.453.267.284.4.657.4 1.119v.373c0 .729-.213 1.528-.64 2.399a7.06 7.06 0 0 1-1.785 2.319h-1.786c.533-.569.959-1.111 1.279-1.626a4.891 4.891 0 0 0 .72-1.679c-.355-.089-.622-.258-.8-.507-.16-.248-.24-.55-.24-.906v-.373c0-.462.125-.835.374-1.119.266-.302.684-.453 1.252-.453ZM786.431 591v-18.604h2.239v16.632h7.916V591h-10.155Zm18.577.32c-1.51 0-2.798-.284-3.864-.853a8.329 8.329 0 0 1-2.719-2.399l1.652-1.386c.658.871 1.386 1.537 2.186 1.999.8.444 1.741.666 2.825.666 1.333 0 2.346-.319 3.039-.959.711-.64 1.066-1.493 1.066-2.559 0-.888-.267-1.572-.8-2.052s-1.412-.862-2.638-1.146l-1.52-.347c-1.705-.391-3.012-.977-3.918-1.759-.888-.8-1.332-1.919-1.332-3.358 0-.818.151-1.546.453-2.186a4.44 4.44 0 0 1 1.252-1.599 5.708 5.708 0 0 1 1.946-.96 8.626 8.626 0 0 1 2.506-.346c1.403 0 2.603.258 3.598.773 1.013.515 1.866 1.27 2.559 2.265l-1.68 1.226a5.8 5.8 0 0 0-1.865-1.679c-.729-.408-1.635-.613-2.719-.613-1.191 0-2.132.258-2.825.773-.676.498-1.013 1.253-1.013 2.266 0 .888.284 1.563.853 2.025.586.445 1.466.8 2.638 1.067l1.52.346c1.83.409 3.154 1.031 3.971 1.866.818.835 1.226 1.946 1.226 3.332 0 .852-.151 1.625-.453 2.318a4.626 4.626 0 0 1-1.253 1.76c-.55.479-1.226.853-2.025 1.119-.782.267-1.671.4-2.666.4Zm11.676 0c-.569 0-.986-.142-1.253-.427-.248-.284-.373-.657-.373-1.119v-.347c0-.462.125-.835.373-1.119.267-.284.684-.426 1.253-.426.569 0 .977.142 1.226.426.267.284.4.657.4 1.119v.347c0 .462-.133.835-.4 1.119-.249.285-.657.427-1.226.427Zm0-10.955c-.569 0-.986-.142-1.253-.426-.248-.285-.373-.658-.373-1.12v-.346c0-.462.125-.835.373-1.12.267-.284.684-.426 1.253-.426.569 0 .977.142 1.226.426.267.285.4.658.4 1.12v.346c0 .462-.133.835-.4 1.12-.249.284-.657.426-1.226.426Zm11.976 3.412v-1.813h12.421v1.813H828.66Zm21.153-3.492c1.261 0 2.203-.284 2.825-.853.64-.586.96-1.332.96-2.239v-.186c0-.978-.311-1.706-.933-2.186-.604-.497-1.404-.746-2.399-.746-.96 0-1.741.213-2.346.64-.604.408-1.101.968-1.492 1.679l-1.653-1.28c.231-.373.507-.737.827-1.092a5.737 5.737 0 0 1 1.172-.987 6.2 6.2 0 0 1 1.546-.693c.587-.177 1.253-.266 1.999-.266.782 0 1.519.106 2.212.32.693.195 1.289.497 1.786.906.516.391.915.88 1.2 1.466.302.586.453 1.253.453 1.999 0 .604-.098 1.146-.293 1.626-.178.48-.427.897-.747 1.253-.32.355-.702.657-1.146.906a5.238 5.238 0 0 1-1.386.559v.107c.498.107.978.284 1.44.533.479.231.897.542 1.252.933.373.373.667.835.88 1.386.231.533.346 1.146.346 1.839 0 .8-.151 1.537-.453 2.212a5.01 5.01 0 0 1-1.279 1.706c-.551.462-1.217.827-1.999 1.093-.782.267-1.644.4-2.586.4-.799 0-1.51-.089-2.132-.267a6.328 6.328 0 0 1-1.652-.719 7.296 7.296 0 0 1-1.28-1.013 9.855 9.855 0 0 1-.959-1.173l1.679-1.279c.231.373.48.71.746 1.013.284.302.595.559.933.772.338.214.72.383 1.146.507.427.107.924.16 1.493.16 1.315 0 2.31-.293 2.985-.88.675-.604 1.013-1.457 1.013-2.559v-.213c0-1.101-.338-1.945-1.013-2.532-.675-.604-1.67-.906-2.985-.906h-2.186v-1.946h2.026ZM863.716 591l12.9-18.604h2.052L865.768 591h-2.052Zm1.066-8.369c-1.351 0-2.39-.444-3.119-1.333-.728-.906-1.093-2.221-1.093-3.945 0-1.723.365-3.029 1.093-3.918.729-.906 1.768-1.359 3.119-1.359 1.35 0 2.39.453 3.118 1.359.729.889 1.093 2.195 1.093 3.918 0 1.724-.364 3.039-1.093 3.945-.728.889-1.768 1.333-3.118 1.333Zm0-1.386c1.528 0 2.292-1.031 2.292-3.092v-1.599c0-2.062-.764-3.092-2.292-3.092-1.528 0-2.292 1.03-2.292 3.092v1.599c0 2.061.764 3.092 2.292 3.092Zm12.82 10.075c-1.35 0-2.39-.444-3.118-1.333-.729-.906-1.093-2.221-1.093-3.945 0-1.723.364-3.029 1.093-3.918.728-.906 1.768-1.359 3.118-1.359 1.351 0 2.39.453 3.119 1.359.728.889 1.093 2.195 1.093 3.918 0 1.724-.365 3.039-1.093 3.945-.729.889-1.768 1.333-3.119 1.333Zm0-1.386c1.528 0 2.292-1.031 2.292-3.092v-1.599c0-2.061-.764-3.092-2.292-3.092-1.528 0-2.292 1.031-2.292 3.092v1.599c0 2.061.764 3.092 2.292 3.092Z"/></svg>