<svg xmlns="http://www.w3.org/2000/svg" width="201" height="190" fill="none"><path fill="#DADADA" d="M93.126 177.577h-9.408V186h-2.24v-18.604h2.24v8.209h9.408v-8.209h2.24V186h-2.24v-8.423Zm16.98 8.423c-.8 0-1.377-.213-1.733-.64-.337-.426-.551-.959-.639-1.599h-.134c-.302.853-.799 1.493-1.492 1.919-.693.427-1.52.64-2.479.64-1.457 0-2.594-.373-3.412-1.12-.8-.746-1.2-1.759-1.2-3.038 0-1.297.472-2.292 1.413-2.985.96-.693 2.444-1.04 4.452-1.04h2.718v-1.359c0-.977-.266-1.724-.799-2.239-.533-.515-1.351-.773-2.452-.773-.836 0-1.538.187-2.106.56a4.664 4.664 0 0 0-1.386 1.492l-1.28-1.199c.374-.746.969-1.377 1.786-1.893.818-.533 1.848-.799 3.092-.799 1.67 0 2.968.409 3.892 1.226.924.817 1.386 1.955 1.386 3.412v7.569h1.572V186h-1.199Zm-6.131-1.493c.533 0 1.022-.062 1.466-.186a3.59 3.59 0 0 0 1.146-.533 2.65 2.65 0 0 0 .747-.8c.177-.302.266-.631.266-.986v-2.266h-2.825c-1.226 0-2.123.178-2.692.533-.551.356-.826.871-.826 1.546v.56c0 .675.24 1.2.719 1.573.498.373 1.164.559 1.999.559Zm10.373-12.26h6.93c1.12 0 1.999.32 2.639.959.64.622.96 1.466.96 2.532 0 1.724-.898 2.692-2.692 2.906v.106c1.066.089 1.857.427 2.372 1.013.533.569.799 1.279.799 2.132 0 .551-.088 1.075-.266 1.573-.16.497-.4.933-.72 1.306-.32.373-.711.675-1.173.906-.462.213-.986.32-1.572.32h-7.277v-13.753Zm6.637 11.994c.64 0 1.146-.169 1.519-.507.374-.337.56-.817.56-1.439v-.613c0-.622-.186-1.102-.56-1.439-.373-.338-.879-.507-1.519-.507h-4.504v4.505h4.504Zm-.266-6.237c.586 0 1.039-.142 1.359-.427.338-.302.506-.728.506-1.279v-.586c0-.551-.168-.969-.506-1.253-.32-.302-.773-.453-1.359-.453h-4.238v3.998h4.238Zm13.663 8.316c-.942 0-1.795-.169-2.559-.507a5.723 5.723 0 0 1-1.946-1.439c-.533-.64-.95-1.395-1.252-2.265-.285-.889-.427-1.884-.427-2.986 0-1.084.142-2.07.427-2.958.302-.889.719-1.644 1.252-2.266a5.598 5.598 0 0 1 1.946-1.466c.764-.337 1.617-.506 2.559-.506.924 0 1.75.169 2.479.506.728.338 1.35.809 1.865 1.413.516.586.907 1.288 1.173 2.106.284.817.427 1.714.427 2.692v1.012h-9.889v.64c0 .586.089 1.137.267 1.653.195.497.462.933.799 1.306.356.373.782.666 1.28.879.515.213 1.092.32 1.732.32.871 0 1.626-.204 2.266-.613.657-.409 1.164-.995 1.519-1.759l1.519 1.093c-.444.941-1.137 1.706-2.079 2.292-.942.569-2.061.853-3.358.853Zm0-12.607c-.587 0-1.12.106-1.599.319-.48.196-.898.48-1.253.853a4.18 4.18 0 0 0-.8 1.333 4.494 4.494 0 0 0-.293 1.653v.186h7.596v-.293c0-1.226-.337-2.203-1.012-2.932-.658-.746-1.537-1.119-2.639-1.119Zm7.405 10.421h1.573c.55-.888.995-1.999 1.332-3.331.338-1.333.507-2.861.507-4.585v-3.971h9.302v11.887h2.292v5.598h-1.946V186h-11.114v3.732h-1.946v-5.598Zm10.582 0v-10.022h-5.145v2.213c0 1.83-.16 3.394-.479 4.691-.302 1.279-.667 2.319-1.093 3.118h6.717Zm7.374-11.887h2.079v7.623l-.213 3.305h.106l1.706-2.932 5.491-7.996h1.972V186h-2.079v-7.623l.214-3.305h-.107l-1.706 2.932-5.491 7.996h-1.972v-13.753Zm18.628 1.865h-4.691v-1.865h11.514v1.865h-4.691V186h-2.132v-11.888Zm14.446 12.208c-.942 0-1.795-.169-2.559-.507a5.71 5.71 0 0 1-1.945-1.439c-.534-.64-.951-1.395-1.253-2.265-.285-.889-.427-1.884-.427-2.986 0-1.084.142-2.07.427-2.958.302-.889.719-1.644 1.253-2.266a5.585 5.585 0 0 1 1.945-1.466c.764-.337 1.617-.506 2.559-.506.924 0 1.75.169 2.479.506.728.338 1.35.809 1.866 1.413.515.586.906 1.288 1.172 2.106.285.817.427 1.714.427 2.692v1.012h-9.889v.64c0 .586.089 1.137.267 1.653.195.497.462.933.799 1.306.356.373.782.666 1.28.879.515.213 1.093.32 1.732.32.871 0 1.626-.204 2.266-.613.657-.409 1.164-.995 1.519-1.759l1.519 1.093c-.444.941-1.137 1.706-2.079 2.292-.941.569-2.061.853-3.358.853Zm0-12.607a3.9 3.9 0 0 0-1.599.319c-.48.196-.898.48-1.253.853a4.18 4.18 0 0 0-.8 1.333 4.494 4.494 0 0 0-.293 1.653v.186h7.597v-.293c0-1.226-.338-2.203-1.013-2.932-.658-.746-1.537-1.119-2.639-1.119Z"/><path stroke="#595959" stroke-width="1.774" d="M78.655 154.259 1 .999"/></svg>